<svg width="20" height="20" viewBox="0 0 20 20" fill="none" xmlns="http://www.w3.org/2000/svg">
<path d="M12.474 18.9582H7.47396C2.94896 18.9582 1.01562 17.0248 1.01562 12.4998V7.49984C1.01562 2.97484 2.94896 1.0415 7.47396 1.0415H12.474C16.999 1.0415 18.9323 2.97484 18.9323 7.49984V12.4998C18.9323 17.0248 17.0073 18.9582 12.474 18.9582ZM7.47396 2.2915C3.63229 2.2915 2.26562 3.65817 2.26562 7.49984V12.4998C2.26562 16.3415 3.63229 17.7082 7.47396 17.7082H12.474C16.3156 17.7082 17.6823 16.3415 17.6823 12.4998V7.49984C17.6823 3.65817 16.3156 2.2915 12.474 2.2915H7.47396Z" fill="#207DFF"/>
<path d="M3.72465 16.0427C3.56631 16.0427 3.40798 15.9843 3.28298 15.8593C3.16675 15.7417 3.10156 15.583 3.10156 15.4177C3.10156 15.2523 3.16675 15.0936 3.28298 14.976L14.9913 3.26768C15.233 3.02601 15.633 3.02601 15.8746 3.26768C16.1163 3.50934 16.1163 3.90934 15.8746 4.15101L4.16631 15.8593C4.10951 15.919 4.04088 15.966 3.96483 15.9976C3.88878 16.0292 3.80697 16.0445 3.72465 16.0427ZM13.383 15.6252C13.0413 15.6252 12.758 15.3418 12.758 15.0002V10.8335C12.758 10.4918 13.0413 10.2085 13.383 10.2085C13.7246 10.2085 14.008 10.4918 14.008 10.8335V15.0002C14.008 15.3418 13.7246 15.6252 13.383 15.6252Z" fill="#17CF9D"/>
<path d="M15.4154 13.5417H11.2487C10.907 13.5417 10.6237 13.2583 10.6237 12.9167C10.6237 12.575 10.907 12.2917 11.2487 12.2917H15.4154C15.757 12.2917 16.0404 12.575 16.0404 12.9167C16.0404 13.2583 15.757 13.5417 15.4154 13.5417ZM8.7487 6.875H4.58203C4.24036 6.875 3.95703 6.59167 3.95703 6.25C3.95703 5.90833 4.24036 5.625 4.58203 5.625H8.7487C9.09036 5.625 9.3737 5.90833 9.3737 6.25C9.3737 6.59167 9.09036 6.875 8.7487 6.875Z" fill="#17CF9D"/>
</svg>
