<svg width="20" height="20" viewBox="0 0 20 20" fill="none" xmlns="http://www.w3.org/2000/svg">
<path d="M10.0986 11.2752H9.95698C8.06531 11.2169 6.64864 9.74189 6.64864 7.92523C6.64864 6.07523 8.15698 4.56689 10.007 4.56689C11.857 4.56689 13.3653 6.07523 13.3653 7.92523C13.367 8.79562 13.0294 9.63241 12.4241 10.2579C11.8189 10.8834 10.9936 11.2483 10.1236 11.2752H10.0986ZM9.99864 5.80856C8.83198 5.80856 7.89031 6.75856 7.89031 7.91689C7.8878 8.46253 8.09776 8.98773 8.47573 9.38126C8.85371 9.77479 9.37001 10.0057 9.91531 10.0252C9.9789 10.0164 10.0434 10.0164 10.107 10.0252C10.6468 9.99644 11.155 9.76179 11.5271 9.36959C11.8991 8.97739 12.1067 8.45749 12.107 7.91689C12.107 6.75856 11.1653 5.80856 9.99864 5.80856ZM9.99864 18.9586C7.75698 18.9586 5.61531 18.1252 3.95698 16.6086C3.88524 16.5425 3.82983 16.4607 3.79512 16.3696C3.76042 16.2785 3.74736 16.1806 3.75698 16.0836C3.86531 15.0919 4.48198 14.1669 5.50698 13.4836C7.99031 11.8336 12.0153 11.8336 14.4903 13.4836C15.5153 14.1752 16.132 15.0919 16.2403 16.0836C16.2653 16.2836 16.1903 16.4752 16.0403 16.6086C14.3921 18.1214 12.2359 18.9602 9.99864 18.9586ZM5.06531 15.9169C6.44803 17.0754 8.19472 17.7098 9.99864 17.7086C11.807 17.7086 13.5486 17.0752 14.932 15.9169C14.782 15.4086 14.382 14.9169 13.7903 14.5169C11.7403 13.1502 8.26531 13.1502 6.19864 14.5169C5.60698 14.9169 5.21531 15.4086 5.06531 15.9169Z" fill="#17CF9D"/>
<path d="M10.0013 18.9582C5.05964 18.9582 1.04297 14.9415 1.04297 9.99984C1.04297 5.05817 5.05964 1.0415 10.0013 1.0415C14.943 1.0415 18.9596 5.05817 18.9596 9.99984C18.9596 14.9415 14.943 18.9582 10.0013 18.9582ZM10.0013 2.2915C5.7513 2.2915 2.29297 5.74984 2.29297 9.99984C2.29297 14.2498 5.7513 17.7082 10.0013 17.7082C14.2513 17.7082 17.7096 14.2498 17.7096 9.99984C17.7096 5.74984 14.2513 2.2915 10.0013 2.2915Z" fill="#207DFF"/>
</svg>
