<svg width="789" height="205" viewBox="0 0 789 205" fill="none" xmlns="http://www.w3.org/2000/svg">
<g clip-path="url(#clip0_1007_62265)">
<rect width="789" height="205" rx="10" fill="#17CF9D"/>
<rect width="789" height="205" rx="10" fill="#F0F6FF"/>
<path d="M376.192 63.4385H374.429C358.671 63.4385 345.777 50.5451 345.777 34.7866C345.777 19.0282 358.671 6.13477 374.429 6.13477H376.192C391.951 6.13477 404.844 19.0282 404.844 34.7857C404.844 50.5451 391.951 63.4385 376.192 63.4385Z" fill="#207DFF"/>
<path d="M376.104 60.9567H374.493C360.1 60.9567 348.324 49.1806 348.324 34.7874C348.324 20.3942 360.1 8.61816 374.493 8.61816H376.104C390.497 8.61816 402.273 20.3942 402.273 34.7874C402.273 49.1806 390.497 60.9567 376.104 60.9567Z" fill="#EEF5FF"/>
<path d="M374.086 13.8451C374.086 13.1697 374.634 12.6221 375.309 12.6221C375.984 12.6221 376.533 13.1697 376.533 13.8451C376.533 14.5205 375.985 15.0691 375.309 15.0691C374.634 15.0682 374.086 14.5205 374.086 13.8451Z" fill="#0D458E"/>
<path d="M383.959 15.5745C384.288 14.9836 385.032 14.7713 385.623 15.0999C386.214 15.4285 386.426 16.1731 386.099 16.7639C385.77 17.3548 385.025 17.5671 384.435 17.2386C383.844 16.91 383.63 16.1654 383.959 15.5745Z" fill="#0D458E"/>
<path d="M392.424 22.294C392.992 21.9279 393.749 22.0913 394.115 22.6591C394.482 23.2269 394.318 23.984 393.75 24.351C393.182 24.717 392.425 24.5537 392.058 23.9859C391.693 23.4181 391.856 22.66 392.424 22.294Z" fill="#0D458E"/>
<path d="M396.606 32.6948C397.281 32.6948 397.83 33.2425 397.83 33.9179C397.83 34.5942 397.282 35.1419 396.606 35.1419C395.929 35.1419 395.383 34.5942 395.383 33.9179C395.383 33.2425 395.93 32.6948 396.606 32.6948Z" fill="#0D458E"/>
<path d="M394.472 44.7639C394.949 45.2414 394.949 46.0167 394.472 46.4942C393.994 46.9717 393.22 46.9717 392.742 46.4942C392.263 46.0167 392.263 45.2414 392.742 44.7639C393.219 44.2864 393.994 44.2864 394.472 44.7639Z" fill="#0D458E"/>
<path d="M386.78 52.4699C387.257 52.9474 387.257 53.7228 386.78 54.2003C386.302 54.6778 385.527 54.6778 385.05 54.2003C384.572 53.7228 384.572 52.9474 385.05 52.4699C385.527 51.9924 386.301 51.9924 386.78 52.4699Z" fill="#0D458E"/>
<path d="M374.086 56.4403C374.086 55.7649 374.634 55.2173 375.309 55.2173C375.984 55.2173 376.533 55.7649 376.533 56.4403C376.533 57.1167 375.985 57.6644 375.309 57.6644C374.634 57.6634 374.086 57.1158 374.086 56.4403Z" fill="#0D458E"/>
<path d="M366.645 15.5755C366.316 14.9846 365.572 14.7723 364.981 15.1009C364.39 15.4295 364.178 16.174 364.506 16.7649C364.835 17.3558 365.579 17.5681 366.17 17.2395C366.761 16.911 366.973 16.1664 366.645 15.5755Z" fill="#0D458E"/>
<path d="M358.18 22.2949C357.612 21.9289 356.855 22.0922 356.488 22.66C356.122 23.2279 356.286 23.9849 356.853 24.3519C357.421 24.718 358.178 24.5547 358.545 23.9869C358.911 23.419 358.748 22.661 358.18 22.2949Z" fill="#0D458E"/>
<path d="M353.997 32.6963C353.322 32.6963 352.773 33.2439 352.773 33.9193C352.773 34.5957 353.321 35.1433 353.997 35.1433C354.673 35.1433 355.221 34.5957 355.221 33.9193C355.221 33.2439 354.673 32.6963 353.997 32.6963Z" fill="#0D458E"/>
<path d="M356.128 44.7668C355.65 45.2443 355.65 46.0196 356.128 46.4971C356.605 46.9746 357.38 46.9746 357.858 46.4971C358.336 46.0196 358.336 45.2443 357.858 44.7668C357.38 44.2893 356.606 44.2893 356.128 44.7668Z" fill="#0D458E"/>
<path d="M363.823 52.4699C363.345 52.9474 363.345 53.7228 363.823 54.2003C364.3 54.6778 365.075 54.6778 365.553 54.2003C366.031 53.7228 366.031 52.9474 365.553 52.4699C365.076 51.9924 364.301 51.9924 363.823 52.4699Z" fill="#0D458E"/>
<path d="M374.973 33.9232C374.973 33.2478 375.52 32.7002 376.197 32.7002C376.872 32.7002 377.421 33.2478 377.421 33.9232C377.421 34.5996 376.873 35.1473 376.197 35.1473C375.52 35.1473 374.973 34.5996 374.973 33.9232Z" fill="#0D458E"/>
<path d="M376.373 18.6406H376.039V33.9254H376.373V18.6406Z" fill="#0D458E"/>
<path d="M366.496 28.0003L375.934 33.3242L375.441 34.197L366.004 28.8731L366.496 28.0003Z" fill="#0D458E"/>
<path d="M602.441 205.998H708.234V8.9991H602.441V205.998Z" fill="#207DFF"/>
<path d="M607.017 205.998H704.91V13.5298H607.017V205.998Z" fill="white"/>
<path d="M704.904 13.5317L640.309 32.1895V187.341L704.904 205.999" fill="#6FDDBF"/>
<path d="M505.147 9H461.816V70.3354H505.147V9Z" fill="white"/>
<path d="M502.227 13.8159H485.672V34.4654H502.227V13.8159Z" fill="#B3D3F6"/>
<path d="M476.377 37.8672H465.648V38.9606H476.377V37.8672Z" fill="#B3D3F6"/>
<path d="M482.36 14.0908H465.648V15.1843H482.36V14.0908Z" fill="#B3D3F6"/>
<path d="M482.36 18.8276H465.648V19.9211H482.36V18.8276Z" fill="#B3D3F6"/>
<path d="M475.063 21.1953H465.648V22.2887H475.063V21.1953Z" fill="#B3D3F6"/>
<path d="M483.032 21.1953H475.996V22.2887H483.032V21.1953Z" fill="#B3D3F6"/>
<path d="M472.344 16.46H465.648V17.5534H472.344V16.46Z" fill="#B3D3F6"/>
<path d="M480.708 16.46H474.012V17.5534H480.708V16.46Z" fill="#B3D3F6"/>
<path d="M501.917 37.8672H493.953V38.9606H501.917V37.8672Z" fill="#B3D3F6"/>
<path d="M485.64 37.8672H477.676V38.9606H485.64V37.8672Z" fill="#B3D3F6"/>
<path d="M492.713 37.8672H486.719V38.9606H492.713V37.8672Z" fill="#B3D3F6"/>
<path d="M483.729 41.1465H465.652V42.2399H483.729V41.1465Z" fill="#B3D3F6"/>
<path d="M492.823 41.1465H484.859V42.2399H492.823V41.1465Z" fill="#B3D3F6"/>
<path d="M501.917 41.1465H493.953V42.2399H501.917V41.1465Z" fill="#B3D3F6"/>
<path d="M479.872 44.4277H465.652V45.5212H479.872V44.4277Z" fill="#B3D3F6"/>
<path d="M501.917 44.4277H493.953V45.5212H501.917V44.4277Z" fill="#B3D3F6"/>
<path d="M491.941 44.4277H481.492V45.5212H491.941V44.4277Z" fill="#B3D3F6"/>
<path d="M483.729 47.8276H465.652V48.9211H483.729V47.8276Z" fill="#B3D3F6"/>
<path d="M492.823 47.8276H484.859V48.9211H492.823V47.8276Z" fill="#B3D3F6"/>
<path d="M501.917 47.8276H493.953V48.9211H501.917V47.8276Z" fill="#B3D3F6"/>
<path d="M476.381 53.3638H465.652V54.4572H476.381V53.3638Z" fill="#B3D3F6"/>
<path d="M501.917 53.3638H493.953V54.4572H501.917V53.3638Z" fill="#B3D3F6"/>
<path d="M485.644 53.3638H477.68V54.4572H485.644V53.3638Z" fill="#B3D3F6"/>
<path d="M492.713 53.3638H486.719V54.4572H492.713V53.3638Z" fill="#B3D3F6"/>
<path d="M483.729 56.6416H465.652V57.7344H483.729V56.6416Z" fill="#B3D3F6"/>
<path d="M492.823 56.6416H484.859V57.7344H492.823V56.6416Z" fill="#B3D3F6"/>
<path d="M501.917 56.6416H493.953V57.7344H501.917V56.6416Z" fill="#B3D3F6"/>
<path d="M479.872 59.9214H465.652V61.0142H479.872V59.9214Z" fill="#B3D3F6"/>
<path d="M501.917 59.9214H493.953V61.0142H501.917V59.9214Z" fill="#B3D3F6"/>
<path d="M491.941 59.9214H481.492V61.0142H491.941V59.9214Z" fill="#B3D3F6"/>
<path d="M483.729 63.3237H465.652V64.4172H483.729V63.3237Z" fill="#B3D3F6"/>
<path d="M492.823 63.3237H484.859V64.4172H492.823V63.3237Z" fill="#B3D3F6"/>
<path d="M501.917 63.3237H493.953V64.4172H501.917V63.3237Z" fill="#B3D3F6"/>
<path d="M184.382 157.224C180.212 154.295 153.161 141.451 139.085 139.941L122.997 134.061C122.997 134.061 109.754 153.675 109.649 168.68C109.6 175.677 112.823 176.373 112.823 176.373C112.823 176.373 162.698 176.742 164.883 176.968C168.462 177.337 173.182 186.251 174.362 194.371C175.542 202.491 196.339 235.515 196.339 235.515C196.339 235.515 200.676 236.904 202.682 236.787C204.839 236.66 205.837 235.938 205.837 235.938C205.837 235.938 193.785 163.827 184.382 157.224Z" fill="#0D458E"/>
<path d="M171.369 157.224C167.748 154.68 158.634 153.527 145.384 149.211C142.193 148.171 129.911 142.251 129.097 138.995L135.157 136.197L109.983 134.061C109.983 134.061 103.613 146.407 103.508 161.413C103.459 168.41 109.648 176.373 109.648 176.373C109.648 176.373 149.682 176.742 151.869 176.968C155.448 177.337 160.168 186.251 161.348 194.371C162.528 202.491 183.324 235.515 183.324 235.515C183.324 235.515 187.661 236.904 189.667 236.787C191.824 236.66 192.823 235.938 192.823 235.938C192.823 235.938 180.772 163.827 171.369 157.224Z" fill="#0D458E"/>
<path d="M132.736 49.0449C128.253 45.8917 122.425 45.3152 117.293 47.2963C111.56 49.5089 108.315 54.1148 105.743 59.449C104.21 62.6281 104.339 66.0907 103.325 69.3871C101.063 76.7331 93.3617 80.2793 88.359 85.5683C83.2506 90.9687 80.4125 98.9671 83.4553 106.142C85.4392 110.82 90.1816 114.351 95.3803 114.247C98.3807 114.187 101.745 112.505 104.397 111.212C109.863 108.548 115.158 105.552 120.42 102.511C125.343 99.6675 130.287 96.0934 135.698 94.3372C141.601 92.4204 143.437 86.2869 143.661 80.6655C143.943 73.5645 142.689 65.6171 140.119 59.0109C139.78 58.1395 139.403 57.2834 138.981 56.4504C137.503 53.5364 135.385 50.9078 132.736 49.0449Z" fill="#78574C" stroke="#78574C" stroke-width="0.6933" stroke-miterlimit="10" stroke-linecap="round"/>
<path d="M106.918 65.9907C108.428 59.1713 112.826 53.0406 118.802 49.4243" stroke="white" stroke-width="0.6933" stroke-miterlimit="10" stroke-linecap="round"/>
<path d="M134.344 53.5181C138.955 60.6488 140.898 69.4638 139.71 77.8724" stroke="white" stroke-width="0.6933" stroke-miterlimit="10" stroke-linecap="round"/>
<path d="M138.898 88.3952C140.385 85.1719 141.278 81.6766 141.521 78.1353" stroke="white" stroke-width="0.6933" stroke-miterlimit="10" stroke-linecap="round"/>
<path d="M134.246 86.3973C136.31 82.6964 137.489 78.5056 137.658 74.2715" stroke="white" stroke-width="0.6933" stroke-miterlimit="10" stroke-linecap="round"/>
<path d="M84.8477 101.695C85.4011 92.8909 90.8034 84.5457 98.6087 80.4365" stroke="white" stroke-width="0.6933" stroke-miterlimit="10" stroke-linecap="round"/>
<path d="M105.398 86.3192C108.232 83.0189 110.39 79.1423 111.701 74.9956" stroke="white" stroke-width="0.6933" stroke-miterlimit="10" stroke-linecap="round"/>
<path d="M129.952 82.5939C129.818 80.8635 129.747 79.1274 129.706 77.3923C129.692 76.837 130.027 73.016 130.084 73.0208C126.21 72.6807 122.337 72.3406 118.462 72.0005C119.154 75.562 119.631 79.2264 119.143 82.836C118.909 84.5692 118.45 86.2774 117.831 87.9127C117.784 88.0356 117.733 88.1557 117.684 88.2777C118.552 89.006 120.128 89.7198 123.002 90.2396C128.724 91.2724 131.223 89.5114 131.294 88.542C131.414 86.9298 130.158 85.2898 129.952 82.5939Z" fill="#FFAE73"/>
<path d="M129.67 75.9564C129.67 75.9564 129.703 79.3825 129.951 82.5933C124.089 82.8864 120.56 77.6041 119.051 74.6411L129.67 75.9564Z" fill="#F9924F"/>
<path d="M132.228 79.7182C131.451 79.7202 130.671 79.6577 129.898 79.5799C126.572 79.2465 122.834 78.6258 120.379 76.2191C117.804 73.6942 116.032 70.3546 115.41 66.8008C114.933 64.077 114.643 61.2014 115.672 58.5401C116.697 55.8884 119.012 54.2628 121.66 53.4462C130.447 50.7359 134.419 58.1539 135.383 61.0766C136.347 63.9982 135.934 79.1312 132.228 79.7182Z" fill="#FFAE73"/>
<path d="M127.741 67.2567C127.783 67.7851 127.389 68.2482 126.86 68.2895C126.332 68.3318 125.869 67.9369 125.827 67.4085C125.785 66.8801 126.18 66.417 126.708 66.3757C127.237 66.3334 127.699 66.7283 127.741 67.2567Z" fill="black"/>
<path d="M135.065 66.6732C135.108 67.2016 134.713 67.6647 134.184 67.706C133.656 67.7483 133.193 67.3534 133.152 66.825C133.109 66.2966 133.504 65.8335 134.033 65.7922C134.561 65.7499 135.023 66.1448 135.065 66.6732Z" fill="black"/>
<path d="M132.594 63.28C133.352 62.9255 134.251 62.8861 135.037 63.1734" stroke="black" stroke-width="0.6933" stroke-miterlimit="10" stroke-linecap="round"/>
<path d="M125.148 64.3062C125.972 63.8162 126.993 63.6702 127.92 63.9113" stroke="black" stroke-width="0.6933" stroke-miterlimit="10" stroke-linecap="round"/>
<path d="M131.152 66.1973C131.352 67.7854 131.552 69.3726 131.752 70.9607" stroke="black" stroke-width="0.6933" stroke-miterlimit="10" stroke-linecap="round"/>
<path d="M131.145 69.1129C131.164 69.1062 131.181 69.0995 131.199 69.0918C131.695 68.8987 131.874 68.9169 132.39 69.0995C133.531 69.503 134.793 69.9834 135.934 70.3888C135.728 71.9011 135.58 73.2961 135.346 74.7958C135.122 76.2264 134.691 77.6906 134.213 79.0578C134.137 79.2739 134.067 79.7274 133.873 79.8667C133.683 80.0032 133.158 79.9542 132.928 79.9705C132.223 80.0214 131.517 80.0368 130.811 80.0166C129.4 79.9772 127.992 79.7985 126.615 79.4853C125.928 79.3287 125.246 79.1375 124.577 78.9137C123.911 78.6908 122.475 78.4842 122.152 77.8021C121.988 77.4572 122.001 77.0584 122.016 76.677C122.065 75.4674 122.114 74.2588 122.163 73.0492C122.186 72.4785 122.111 71.7954 122.236 71.2401C122.328 70.8308 122.499 70.8068 122.898 70.752C125.209 70.434 127.482 70.1419 129.748 69.5626C130.222 69.4396 130.688 69.2887 131.145 69.1129Z" fill="white"/>
<path d="M118.504 66.4072C120.19 67.9406 121.877 69.4749 123.563 71.0093" stroke="black" stroke-width="0.6933" stroke-miterlimit="10" stroke-linecap="round"/>
<path d="M118.801 72.1597C119.886 73.9553 120.973 75.751 122.059 77.5476" stroke="black" stroke-width="0.6933" stroke-miterlimit="10" stroke-linecap="round"/>
<path d="M129.348 69.8569C129.935 69.6571 130.527 69.4044 131.127 69.2507C131.583 69.1335 132.003 69.2373 132.463 69.3545C132.814 69.4438 133.166 69.5332 133.516 69.6235" stroke="black" stroke-width="0.6933" stroke-miterlimit="10" stroke-linecap="round"/>
<path d="M127.871 72.3748C130.263 71.9905 132.724 72.0443 135.097 72.5314" stroke="black" stroke-width="0.6933" stroke-miterlimit="10" stroke-linecap="round"/>
<path d="M127.773 75.0801C130.092 75.13 132.41 75.18 134.728 75.2299" stroke="black" stroke-width="0.6933" stroke-miterlimit="10" stroke-linecap="round"/>
<path d="M127.109 77.5908C129.474 77.6927 131.837 77.7935 134.202 77.8954" stroke="black" stroke-width="0.6933" stroke-miterlimit="10" stroke-linecap="round"/>
<path d="M118.189 66.9776C124.363 65.9332 129.679 61.0727 131.222 55.0151C133.496 56.5879 135.611 60.4501 136.135 63.3882C136.135 63.3882 137.139 64.0203 137.139 62.5696C137.139 61.1198 135.577 54.3147 129.553 51.0798C123.529 47.8449 115.087 52.0463 114.344 59.5951C113.6 67.1438 114.753 67.4406 114.753 67.4406L118.189 66.9776Z" fill="#78574C" stroke="#78574C" stroke-width="0.6933" stroke-miterlimit="10" stroke-linecap="round"/>
<path d="M113.094 65.8297C119.066 62.9936 124.253 58.526 127.943 53.041" stroke="white" stroke-width="0.6933" stroke-miterlimit="10" stroke-linecap="round"/>
<path d="M118.535 66.4543C117.731 65.8115 116.358 65.6338 115.596 66.339C115.166 66.7368 115.022 67.3161 114.987 67.8656C114.875 69.5883 115.7 71.3253 117.152 72.4273C117.529 72.7127 117.953 72.9615 118.433 73.0701C118.912 73.1787 119.454 73.1325 119.862 72.8712C120.544 72.436 120.66 71.5617 120.522 70.8286C120.244 69.3635 119.818 67.4794 118.535 66.4543Z" fill="#FFAE73"/>
<path d="M116.647 68.7739C116.57 68.3982 116.926 68.0303 117.309 68.0043C117.691 67.9784 118.051 68.2215 118.271 68.5347C118.491 68.8479 118.598 69.2255 118.701 69.5944C118.315 69.5243 117.915 69.8884 117.947 70.2785C117.98 70.6685 118.435 70.9606 118.804 70.828" stroke="black" stroke-width="0.6933" stroke-miterlimit="10" stroke-linecap="round"/>
<path d="M119.504 67.9293C119.505 67.0819 118.901 66.2845 118.103 65.9972C117.313 65.7119 116.02 65.8041 115.512 66.5554C114.68 67.7852 115.165 69.5136 115.876 70.679C116.704 72.0366 118.15 72.9733 119.747 73.0915" stroke="black" stroke-width="0.6933" stroke-miterlimit="10" stroke-linecap="round"/>
<path d="M143.392 115.521C142.942 145.619 154.035 137.195 150.742 140.052C149.949 140.739 146.702 145.862 134.457 146.471C125.218 146.93 108.562 142.57 107.944 140.865C105.815 134.963 107.319 133.129 105.542 124.093C105.357 123.133 105.128 122.092 104.859 120.959C103.379 114.754 101.937 112.643 107.191 102.672C111.955 93.6411 117.559 86.3047 118.003 86.5689C130.574 94.0312 131.005 87.7766 131.005 87.7766C131.005 87.7766 143.613 100.838 143.392 115.521Z" fill="#003B8E"/>
<path d="M131.02 87.7783C131.02 87.7783 143.885 89.9592 145.404 95.5278C146.923 101.097 163.292 147.916 163.292 147.916C163.292 147.916 145.935 143.674 142.898 140.636C139.861 137.598 135.678 103.797 135.678 103.797L131.02 87.7783Z" fill="white"/>
<path d="M130.613 85.4507L131.024 87.7776C132.486 92.8044 134.959 108.341 138.038 120.361L140.191 103.149L138.42 101.703L139.084 99.2684L133.283 88.26L130.613 85.4507Z" fill="white"/>
<path d="M130.797 85.6304L132.985 87.7114L139.074 99.2694L138.41 101.705L140.181 103.151L137.987 119.999" stroke="black" stroke-width="0.6933" stroke-miterlimit="10" stroke-linecap="round"/>
<path d="M142.879 102.875C146.508 115.878 151.614 132.464 155.243 145.467" stroke="black" stroke-width="0.6933" stroke-miterlimit="10" stroke-linecap="round"/>
<path d="M144.047 102.71C144.071 104.245 144.094 105.781 144.118 107.316" stroke="black" stroke-width="0.6933" stroke-miterlimit="10" stroke-linecap="round"/>
<path d="M134.469 138.922C134.469 138.922 136.377 141.383 137.002 141.677C137.628 141.97 138.031 141.897 138.031 141.897L136.746 139.583L134.469 138.922Z" fill="#FFAE73"/>
<path d="M134.039 136.387L139.586 139.081C139.586 139.081 139.349 139.467 138.667 139.435C137.984 139.404 136.261 138.774 136.261 138.774L134.039 136.387Z" fill="#FFAE73"/>
<path d="M124 168.046C104.156 174.685 95.4414 170.615 95.4414 170.615L98.683 151.432L100.454 140.971L104.251 118.515L110.734 97.1632L116.407 93.7275L121.357 118.514L122.66 142.89L122.722 144.062L124 168.046Z" fill="white"/>
<path d="M107.087 120.852C106.755 121.375 106.741 131.575 116.351 134.07C125.962 136.565 102.277 138.995 102.277 138.995C102.277 138.995 94.6398 133.134 94.7512 131.695C94.8617 130.256 107.087 120.852 107.087 120.852Z" fill="#CCCCCC"/>
<path d="M122.731 144.063C118.653 146.133 108.548 150.783 98.6914 151.432L100.462 140.971L122.668 142.892L122.731 144.063Z" fill="#CCCCCC"/>
<path d="M123.469 137.609C123.469 137.609 132.574 135.58 134.044 136.389C135.513 137.197 139.104 140.14 139.554 141.164C140.003 142.188 136.282 140.387 135.073 140.062C134.289 139.852 132.226 140.569 131.205 140.91C126.907 142.342 124.274 141.605 124.274 141.605L123.469 137.609Z" fill="#FFAE73"/>
<path d="M150.924 140.634H133.77V141.748H150.924V140.634Z" fill="#1E3865"/>
<path d="M120.996 89.7402C123.329 91.3226 126.284 91.9577 129.061 91.4725" stroke="black" stroke-width="0.6933" stroke-miterlimit="10" stroke-linecap="round"/>
<path d="M118.021 86.5684C118.021 86.5684 105.134 87.3226 100.901 93.2245C94.9432 101.534 83.1239 136.949 89.8973 141.672C97.5257 146.991 124.614 143.063 124.614 143.063C124.614 143.063 125.516 138.85 124.262 136.811C123.008 134.774 102.625 131.48 101.685 130.54C100.744 129.599 113.444 112.196 113.444 109.373C113.444 106.55 118.021 86.5684 118.021 86.5684Z" fill="white"/>
<path d="M121.043 136.028C121.768 138.422 121.843 141.007 121.258 143.438" stroke="black" stroke-width="0.6933" stroke-miterlimit="10" stroke-linecap="round"/>
<path d="M121.742 138.736C122.447 138.814 123.153 138.892 123.857 138.971" stroke="black" stroke-width="0.6933" stroke-miterlimit="10" stroke-linecap="round"/>
<path d="M121.859 141.793C122.604 141.832 123.348 141.872 124.092 141.91" stroke="black" stroke-width="0.6933" stroke-miterlimit="10" stroke-linecap="round"/>
<path d="M110.777 115.059C111.483 115.103 112.188 115.147 112.893 115.191" stroke="black" stroke-width="0.6933" stroke-miterlimit="10" stroke-linecap="round"/>
<path d="M112.449 112.359C108.808 118.164 105.27 124.516 101.629 130.321" stroke="black" stroke-width="0.6933" stroke-miterlimit="10" stroke-linecap="round"/>
<path d="M96.0742 132.689C97.7805 131.531 99.7328 130.737 101.764 130.375" stroke="black" stroke-width="0.6933" stroke-miterlimit="10" stroke-linecap="round"/>
<path d="M97.4688 133.438C98.7264 132.144 100.249 131.111 101.915 130.418" stroke="black" stroke-width="0.6933" stroke-miterlimit="10" stroke-linecap="round"/>
<path d="M101.699 130.414C104.999 131.273 108.271 132.295 111.59 133.076C114.934 133.864 120.478 135.132 124.126 136.558" stroke="black" stroke-width="0.6933" stroke-miterlimit="10" stroke-linecap="round"/>
<path d="M118.751 84.9146L121.362 118.521L115.385 105.654L116.409 103.363C116.409 103.363 114.223 99.5998 114.223 99.1569C114.223 98.715 114.845 86.9312 114.845 86.9312L118.751 84.9146Z" fill="white"/>
<path d="M114.778 87.1982C114.494 91.0961 114.21 94.9939 113.926 98.8917L116.402 103.363L115.377 105.654L121.354 118.521" stroke="black" stroke-width="0.6933" stroke-miterlimit="10" stroke-linecap="round"/>
<path d="M268.311 150.476H11.043V304.317H268.311V150.476Z" fill="#6FDDBF"/>
<path d="M179.031 191.115H268.313" stroke="black" stroke-width="0.8529" stroke-miterlimit="10" stroke-linecap="round"/>
<path d="M210.539 183.82H268.304" stroke="black" stroke-width="0.8529" stroke-miterlimit="10" stroke-linecap="round"/>
<path d="M280.078 141.777H-0.761719V154.357H280.078V141.777Z" fill="#207DFF"/>
<path d="M-1 154.274H276.898" stroke="black" stroke-width="0.8529" stroke-miterlimit="10" stroke-linecap="round"/>
<path d="M209.849 133.127H157.609L167.101 98.0229H219.34L209.849 133.127Z" fill="#0E2C61"/>
<path d="M211.497 133.127H159.258L168.749 98.0229H220.989L211.497 133.127Z" fill="#207DFF"/>
<path d="M189.254 141.643L178.301 141.743L185.883 118.628L196.837 118.528L189.254 141.643Z" fill="#003B8E"/>
<path d="M195.445 140.642H171.523V141.744H195.445V140.642Z" fill="#0E2C61"/>
<path d="M250.862 96.1313C250.862 96.1313 239.134 92.6111 242.238 83.602C242.238 83.602 245.049 77.8691 248.942 75.6891C248.942 75.6891 249.346 88.0042 251.633 87.7871C253.919 87.5699 250.193 74.0971 250.193 74.0971C250.193 74.0971 260.002 66.3688 264.406 65.8279C264.406 65.8279 260.16 78.8846 262.323 78.1122C264.486 77.3388 269.536 63.9573 269.536 63.9573C269.536 63.9573 280.335 59.3658 283.628 65.6386C286.921 71.9104 284.743 75.8976 283.167 76.6864C281.591 77.4742 270.853 79.7176 271.44 81.0463C272.027 82.3751 279.753 82.9919 283.507 80.8427C283.507 80.8427 281.501 92.8176 275.537 93.5612C269.572 94.3039 266.961 91.0911 263.283 91.6167C259.606 92.1432 257.18 93.7044 259.205 94.2751C261.229 94.8458 267.202 92.8311 270.674 94.6642C274.146 96.4973 276.851 97.5013 271.675 99.8196C266.5 102.138 256.612 103.608 253.736 99.8696C250.862 96.1313 250.862 96.1313 250.862 96.1313Z" fill="#E6E6E6"/>
<path d="M270.701 85.7929C267.026 85.2578 263.351 84.7226 259.676 84.1875" stroke="black" stroke-miterlimit="10" stroke-linecap="round" stroke-linejoin="round"/>
<path d="M258.547 74.7485C259.304 77.0938 260.266 80.1115 261.023 82.4567" stroke="black" stroke-miterlimit="10" stroke-linecap="round" stroke-linejoin="round"/>
<path d="M271.885 71.8491C265.919 77.3072 259.879 82.8547 255.579 89.7011C249.863 98.8014 247.558 109.99 249.21 120.609" stroke="black" stroke-miterlimit="10" stroke-linecap="round" stroke-linejoin="round"/>
<path d="M249.617 87.9976C250.735 89.8086 251.853 91.6196 252.971 93.4307" stroke="black" stroke-miterlimit="10" stroke-linecap="round" stroke-linejoin="round"/>
<path d="M258.682 96.3856C256.717 95.8571 254.751 95.3287 252.785 94.8003" stroke="black" stroke-miterlimit="10" stroke-linecap="round" stroke-linejoin="round"/>
<path d="M270.995 68.0049C270.448 69.9312 269.899 71.8566 269.352 73.7829" stroke="black" stroke-miterlimit="10" stroke-linecap="round" stroke-linejoin="round"/>
<path d="M269.195 74.8147C271.871 74.3247 274.547 73.8357 277.222 73.3457" stroke="black" stroke-miterlimit="10" stroke-linecap="round" stroke-linejoin="round"/>
<path d="M261.47 109.787C261.47 109.787 256.375 103.843 261.156 100.067C261.156 100.067 264.648 97.9531 267.496 98.1241C267.496 98.1241 263.461 104.89 264.766 105.563C266.071 106.237 268.719 97.7004 268.719 97.7004C268.719 97.7004 276.666 96.9299 279.223 98.1587C279.223 98.1587 272.429 103.718 273.86 104.049C275.29 104.381 282.629 98.9235 282.629 98.9235C282.629 98.9235 290.026 100.182 289.631 104.695C289.236 109.207 286.688 110.601 285.568 110.48C284.447 110.36 277.895 107.859 277.753 108.776C277.61 109.694 281.555 112.693 284.317 112.833C284.317 112.833 279.102 118.584 275.636 116.924C272.171 115.265 271.875 112.634 269.714 111.647C267.553 110.66 265.71 110.662 266.601 111.669C267.493 112.675 271.403 113.653 272.639 115.839C273.874 118.023 274.983 119.498 271.396 118.958C267.811 118.418 261.982 115.795 261.726 112.79C261.47 109.787 261.47 109.787 261.47 109.787Z" fill="white"/>
<path d="M267.926 106.78C269.404 104.759 270.882 102.739 272.361 100.719" stroke="black" stroke-miterlimit="10" stroke-linecap="round" stroke-linejoin="round"/>
<path d="M271.043 106.668C272.75 107.85 274.457 109.031 276.164 110.213" stroke="black" stroke-miterlimit="10" stroke-linecap="round" stroke-linejoin="round"/>
<path d="M279.882 105.247C274.293 105.92 267.725 106.456 262.685 109.127C258.318 111.441 254.81 115.399 253.176 120.077" stroke="black" stroke-miterlimit="10" stroke-linecap="round" stroke-linejoin="round"/>
<path d="M238.823 103.308C238.823 103.308 247.278 99.4622 244.023 93.0078C244.023 93.0078 241.324 88.9861 238.174 87.7457C238.174 87.7457 239.13 97.044 237.389 97.1151C235.648 97.1862 237.071 86.6774 237.071 86.6774C237.071 86.6774 228.907 81.8716 225.541 81.9158C225.541 81.9158 230.069 91.2967 228.364 90.9364C226.659 90.5771 221.494 81.0348 221.494 81.0348C221.494 81.0348 212.907 78.6886 211.074 83.7403C209.241 88.792 211.285 91.5657 212.551 91.9981C213.816 92.4295 222.117 93.0165 221.811 94.0752C221.506 95.134 215.762 96.3878 212.72 95.1571C212.72 95.1571 215.453 103.954 220.012 103.901C224.571 103.849 226.206 101.167 229.024 101.186C231.842 101.205 233.825 102.13 232.362 102.767C230.898 103.404 226.202 102.5 223.78 104.232C221.357 105.966 219.427 106.997 223.555 108.211C227.683 109.424 235.267 109.518 237.045 106.413C238.823 103.308 238.823 103.308 238.823 103.308Z" fill="white"/>
<path d="M231.576 95.3216C228.95 95.2198 226.323 95.118 223.695 95.0161" stroke="black" stroke-miterlimit="10" stroke-linecap="round" stroke-linejoin="round"/>
<path d="M230.625 89.0669C231.009 91.169 231.393 93.2722 231.777 95.3743" stroke="black" stroke-miterlimit="10" stroke-linecap="round" stroke-linejoin="round"/>
<path d="M215.438 87.2783C223.762 88.8511 231.424 93.6847 236.429 100.519C240.931 106.665 243.352 114.261 246.292 121.224" stroke="black" stroke-miterlimit="10" stroke-linecap="round" stroke-linejoin="round"/>
<path d="M238.808 97.0435C238.295 98.6633 237.783 100.282 237.27 101.902" stroke="black" stroke-miterlimit="10" stroke-linecap="round" stroke-linejoin="round"/>
<path d="M232.469 103.675C234.105 103.112 235.741 102.55 237.377 101.987" stroke="black" stroke-miterlimit="10" stroke-linecap="round" stroke-linejoin="round"/>
<path d="M251.983 140.478C263.541 140.478 272.911 131.109 272.911 119.55H231.055C231.055 131.108 240.425 140.478 251.983 140.478Z" fill="#6FDDBF"/>
<path d="M258.149 139.163H244.855V141.553H258.149V139.163Z" fill="#6FDDBF"/>
<path d="M231.676 124.102H272.303" stroke="black" stroke-miterlimit="10" stroke-linecap="round" stroke-linejoin="round"/>
<path d="M660.974 88.0151L641.445 102.556C641.445 102.556 632.184 142.014 632.184 145.993C632.184 149.972 644.516 146.883 646.502 140.465C648.15 135.136 653.711 118.765 656.643 108.41L660.974 88.0151Z" fill="white"/>
<path d="M661.233 88.4111C661.233 88.4111 653.114 90.5222 648.73 99.2916C645.724 105.303 633.477 205.467 633.477 205.467C633.477 205.467 639.574 210.866 652.662 208.928C665.751 206.99 661.233 88.4111 661.233 88.4111Z" fill="white"/>
<path d="M660.357 88.3359C656.594 92.3476 651.837 97.1282 648.074 101.14C649.065 102.541 650.056 103.943 651.047 105.344C650.221 105.325 649.394 105.305 648.567 105.285C648.436 111.658 648.305 118.03 648.174 124.403" stroke="black" stroke-width="0.7114" stroke-miterlimit="10" stroke-linecap="round" stroke-linejoin="round"/>
<path d="M637.004 180.195C638.395 180.503 639.784 180.811 641.175 181.12" stroke="black" stroke-width="0.7114" stroke-miterlimit="10" stroke-linecap="round" stroke-linejoin="round"/>
<path d="M635.139 282.865C637.814 283.795 642.925 286.635 646.171 285.299C648.269 284.437 657.359 228.18 657.359 228.18C657.359 228.18 673.499 171.981 673.389 165.196C673.219 154.664 644.609 162.989 644.609 162.989L636.726 222.771C636.726 222.771 636.693 264.155 633.527 280.025C633.282 281.26 634.03 282.481 635.139 282.865Z" fill="#A9C2FF"/>
<path d="M651.695 166.866L664.144 234.919L670.122 284.773C670.122 284.773 676.763 286.519 681.929 285.122L681.256 235.35L681.579 162.204L651.695 166.866Z" fill="#A9C2FF"/>
<path d="M654.148 181.609C656.56 193.149 662.476 224.502 664.887 236.042" stroke="black" stroke-width="1.0261" stroke-miterlimit="10" stroke-linecap="round" stroke-linejoin="round"/>
<path d="M651.543 182.037C652.886 184.296 654.23 186.556 655.573 188.815" stroke="black" stroke-width="1.0261" stroke-miterlimit="10" stroke-linecap="round" stroke-linejoin="round"/>
<path d="M673.405 89.7306C671.264 89.247 669.056 88.819 666.929 88.5213C662.227 87.8625 655.177 95.2941 655.166 95.3144C647.288 110.921 642.266 177.006 642.266 177.006C642.266 177.006 656.557 182.275 673.405 178.896V89.7306Z" fill="#003B8E"/>
<path d="M660.931 86.3152C661.056 84.6876 661.123 83.0548 661.162 81.4228C661.175 80.9005 660.859 77.3063 660.806 77.3115C664.451 76.9918 668.094 76.6721 671.738 76.3516C671.087 79.7018 670.638 83.1481 671.098 86.5433C671.318 88.1744 671.749 89.78 672.332 91.3186C672.376 91.434 672.423 91.5476 672.47 91.6612C671.653 92.3464 670.171 93.0175 667.466 93.5063C662.085 94.4778 659.735 92.8211 659.668 91.9096C659.556 90.393 660.737 88.8508 660.931 86.3152Z" fill="#FFAE73"/>
<path d="M661.177 80.0714C661.177 80.0714 661.147 83.294 660.914 86.314C666.427 86.5896 669.747 81.6206 671.167 78.834L661.177 80.0714Z" fill="#F9924F"/>
<path d="M658.788 83.6123C659.519 83.614 660.253 83.555 660.979 83.4819C664.108 83.1684 667.624 82.5845 669.933 80.321C672.355 77.9466 674.023 74.805 674.608 71.4618C675.056 68.8997 675.329 66.195 674.361 63.6911C673.396 61.1969 671.22 59.668 668.729 58.9C660.463 56.3512 656.727 63.3283 655.821 66.077C654.914 68.8258 655.302 83.06 658.788 83.6123Z" fill="#FFAE73"/>
<path d="M663.022 71.8844C662.983 72.382 663.354 72.8171 663.851 72.8558C664.349 72.8955 664.784 72.5238 664.823 72.0271C664.862 71.5295 664.491 71.0944 663.994 71.0556C663.496 71.016 663.061 71.3877 663.022 71.8844Z" fill="black"/>
<path d="M656.007 71.7238C655.967 72.2214 656.339 72.6564 656.836 72.6952C657.333 72.7348 657.768 72.3632 657.807 71.8664C657.847 71.3688 657.475 70.9337 656.978 70.895C656.481 70.8554 656.046 71.227 656.007 71.7238Z" fill="black"/>
<path d="M658.454 68.1474C657.742 67.8136 656.895 67.7766 656.156 68.047" stroke="black" stroke-width="0.7114" stroke-miterlimit="10" stroke-linecap="round"/>
<path d="M665.47 68.6609C664.696 68.1994 663.735 68.0629 662.863 68.2892" stroke="black" stroke-width="0.7114" stroke-miterlimit="10" stroke-linecap="round"/>
<path d="M659.837 70.8945C659.649 72.3882 659.461 73.882 659.273 75.3748" stroke="black" stroke-width="0.7114" stroke-miterlimit="10" stroke-linecap="round"/>
<path d="M659.801 73.6335C659.784 73.6273 659.767 73.6203 659.751 73.6141C659.284 73.4327 659.116 73.4503 658.63 73.6211C657.557 74.0007 656.37 74.4525 655.297 74.833C655.491 76.2554 655.63 77.5677 655.85 78.9786C656.06 80.3243 656.466 81.7018 656.916 82.9877C656.987 83.1911 657.053 83.6174 657.235 83.7486C657.414 83.8772 657.908 83.8305 658.125 83.8464C658.787 83.8939 659.452 83.908 660.115 83.8895C661.443 83.8525 662.767 83.6843 664.062 83.3893C664.709 83.2413 665.349 83.0625 665.979 82.8511C666.605 82.6415 667.957 82.4478 668.26 81.8057C668.414 81.4807 668.402 81.1064 668.388 80.7471C668.342 79.6092 668.296 78.4722 668.25 77.3343C668.228 76.797 668.299 76.155 668.181 75.6318C668.094 75.247 667.933 75.2249 667.559 75.173C665.386 74.8744 663.247 74.5987 661.116 74.0536C660.67 73.9408 660.231 73.7982 659.801 73.6335Z" fill="white"/>
<path d="M671.697 71.0884C670.111 72.531 668.525 73.9736 666.938 75.4163" stroke="black" stroke-width="0.7114" stroke-miterlimit="10" stroke-linecap="round"/>
<path d="M671.436 76.4971C670.414 78.1863 669.393 79.8755 668.371 81.5648" stroke="black" stroke-width="0.7114" stroke-miterlimit="10" stroke-linecap="round"/>
<path d="M661.512 74.3331C660.96 74.1455 660.403 73.9077 659.838 73.7633C659.409 73.6532 659.014 73.7501 658.581 73.8611C658.25 73.9456 657.92 74.0293 657.59 74.1138" stroke="black" stroke-width="0.7114" stroke-miterlimit="10" stroke-linecap="round"/>
<path d="M662.91 76.7029C660.66 76.3418 658.345 76.392 656.113 76.85" stroke="black" stroke-width="0.7114" stroke-miterlimit="10" stroke-linecap="round"/>
<path d="M662.994 79.2456C660.814 79.2923 658.633 79.339 656.453 79.3865" stroke="black" stroke-width="0.7114" stroke-miterlimit="10" stroke-linecap="round"/>
<path d="M663.613 81.6089C661.389 81.704 659.165 81.8 656.941 81.8951" stroke="black" stroke-width="0.7114" stroke-miterlimit="10" stroke-linecap="round"/>
<path d="M660.906 72.4403C660.906 74.0547 662.215 75.3626 663.828 75.3626C665.443 75.3626 666.751 74.0538 666.751 72.4403C666.751 70.826 665.442 69.5181 663.828 69.5181C662.214 69.5172 660.906 70.826 660.906 72.4403Z" stroke="black" stroke-width="0.7114" stroke-miterlimit="10" stroke-linecap="round" stroke-linejoin="round"/>
<path d="M653.031 72.4403C653.031 74.0547 654.34 75.3626 655.953 75.3626C657.568 75.3626 658.876 74.0538 658.876 72.4403C658.876 70.826 657.567 69.5181 655.953 69.5181C654.34 69.5172 653.031 70.826 653.031 72.4403Z" stroke="black" stroke-width="0.7114" stroke-miterlimit="10" stroke-linecap="round" stroke-linejoin="round"/>
<path d="M660.858 72.0365C660.203 71.8419 659.489 71.8445 658.836 72.0453" stroke="black" stroke-width="0.7114" stroke-miterlimit="10" stroke-linecap="round" stroke-linejoin="round"/>
<path d="M670.483 71.9248C669.25 72.1688 668.017 72.4118 666.785 72.6558" stroke="black" stroke-width="0.7114" stroke-miterlimit="10" stroke-linecap="round" stroke-linejoin="round"/>
<path d="M674.899 71.9775C676.641 69.0482 676.741 65.2382 675.491 62.2138C675.94 62.1063 676.39 61.998 676.839 61.8905C676.366 61.3295 675.632 60.9975 674.899 61.0107C674.853 60.4056 674.714 59.5857 674.448 59.0405C674.315 58.7684 673.687 57.7635 673.522 57.6014C673.407 58.2241 673.293 58.8467 673.178 59.4694C672.174 57.0016 669.916 55.0825 667.319 54.488C664.722 53.8935 661.854 54.6413 659.877 56.4265C658.499 57.6701 657.576 59.3347 656.328 60.7068C655.079 62.079 653.264 63.2019 651.449 62.8144C652.645 63.4098 653.841 64.006 655.037 64.6023C654.133 64.9563 653.227 65.3588 652.323 65.712C654.217 66.0343 657.075 65.4786 658.832 64.7C660.589 63.9215 662.246 62.9166 664.051 62.2587C665.674 61.6677 667.503 61.3762 669.153 61.8298C668.825 65.0171 669.475 69.0209 670.645 72.0039L674.899 71.9775Z" fill="black" stroke="black" stroke-width="0.7114" stroke-miterlimit="10" stroke-linecap="round" stroke-linejoin="round"/>
<path d="M674.625 63.9214C675.214 66.0483 675.233 68.3303 674.678 70.4669" stroke="white" stroke-width="0.7114" stroke-miterlimit="10" stroke-linecap="round"/>
<path d="M670.773 63.04C670.281 65.1212 670.324 67.3265 670.899 69.3866" stroke="white" stroke-width="0.7114" stroke-miterlimit="10" stroke-linecap="round"/>
<path d="M671.761 64.2485C671.556 65.796 671.631 67.3795 671.982 68.8996" stroke="white" stroke-width="0.7114" stroke-miterlimit="10" stroke-linecap="round"/>
<path d="M671.297 58.8354C670.123 56.8678 667.714 55.818 665.427 55.9695C663.141 56.121 661.014 57.3496 659.457 59.03" stroke="white" stroke-width="0.7114" stroke-miterlimit="10" stroke-linecap="round"/>
<path d="M668.602 60.1859C667.009 59.5923 665.223 60.1454 663.698 60.8958C662.173 61.6461 660.704 62.6079 659.027 62.8818" stroke="white" stroke-width="0.7114" stroke-miterlimit="10" stroke-linecap="round"/>
<path d="M670.472 59.4603C669.563 58.6589 668.417 58.1296 667.219 57.9561" stroke="white" stroke-width="0.7114" stroke-miterlimit="10" stroke-linecap="round" stroke-linejoin="round"/>
<path d="M671.668 71.1369C672.425 70.5327 673.716 70.3645 674.432 71.0286C674.836 71.4029 674.972 71.9481 675.005 72.465C675.11 74.0856 674.334 75.7193 672.968 76.7559C672.614 77.0245 672.214 77.2579 671.763 77.3601C671.312 77.4623 670.802 77.4182 670.418 77.1734C669.778 76.7639 669.668 75.9421 669.798 75.2517C670.062 73.8733 670.461 72.1013 671.668 71.1369Z" fill="#FFAE73"/>
<path d="M673.442 73.3184C673.515 72.9653 673.18 72.6191 672.821 72.5945C672.461 72.5707 672.122 72.7988 671.915 73.0938C671.708 73.3889 671.608 73.7438 671.512 74.0908C671.875 74.0248 672.251 74.3674 672.22 74.7346C672.189 75.1019 671.761 75.3767 671.414 75.2507" stroke="black" stroke-width="0.7114" stroke-miterlimit="10" stroke-linecap="round"/>
<path d="M670.737 72.5238C670.736 71.7268 671.304 70.9764 672.054 70.706C672.798 70.4383 674.013 70.5237 674.491 71.2309C675.273 72.3873 674.817 74.0131 674.149 75.1096C673.37 76.3867 672.009 77.2683 670.508 77.3792" stroke="black" stroke-width="0.7114" stroke-miterlimit="10" stroke-linecap="round"/>
<path d="M658.593 210.141C658.568 210.545 658.544 210.949 658.52 211.353C667.156 212.325 674.902 210.898 683.293 208.57C684.913 208.008 686.586 207.37 688.324 206.663C688.509 206.589 687.851 183.559 687.092 159.804C687.015 157.352 686.934 154.89 686.856 152.445C686.822 151.409 686.789 150.38 686.755 149.351C686.066 128.341 685.383 109.368 685.24 108.346C684.911 106.034 684.603 104.064 684.268 102.357C683.287 97.3787 682.07 94.6493 679.416 92.3022C679.158 92.0644 677.036 90.7688 675.164 89.6424C673.613 88.7097 672.234 87.895 672.234 87.895C671.617 88.2623 670.876 89.9726 670.1 92.3761C665.465 106.78 664.22 121.616 662.969 136.759C660.95 161.173 659.969 185.683 658.593 210.141Z" fill="white"/>
<path d="M666.785 184.438C672.716 185.685 679.033 185.014 684.571 182.55" stroke="black" stroke-width="0.7114" stroke-miterlimit="10" stroke-linecap="round" stroke-linejoin="round"/>
<path d="M686.766 149.351C686.703 147.441 686.641 145.549 686.578 143.684C684.335 144.331 682.088 144.963 679.848 145.612C673.91 147.334 667.96 149.024 661.952 150.482C661.548 156.382 661.183 162.287 660.848 168.194C669.507 164.951 678.312 162.104 687.082 159.162C687.011 156.922 686.938 154.676 686.867 152.445C686.833 151.408 686.8 150.378 686.766 149.351Z" fill="#C4CFE0"/>
<path d="M663.984 127.181C666.925 120.096 670.504 113.277 674.663 106.831C673.3 106.538 671.936 106.245 670.573 105.952C672.422 105.022 674.01 103.833 675.859 102.903C674.556 97.9529 673.253 93.0023 671.95 88.0518" stroke="black" stroke-width="0.7114" stroke-miterlimit="10" stroke-linecap="round" stroke-linejoin="round"/>
<path d="M677.916 122.417H668.988V126.661H677.916V122.417Z" stroke="black" stroke-width="0.7114" stroke-miterlimit="10" stroke-linecap="round" stroke-linejoin="round"/>
<path d="M659.32 142.401L659.52 156.795L698.761 147.139C700.366 146.744 701.333 145.112 700.899 143.516C698.154 133.408 689.155 100.329 688.816 99.8211C688.416 99.2213 674.021 89.2251 674.021 89.2251L685.384 136.49L659.32 142.401Z" fill="white"/>
<path d="M677.668 103.712L685.382 136.49" stroke="black" stroke-width="0.7114" stroke-miterlimit="10" stroke-linecap="round" stroke-linejoin="round"/>
<path d="M676.66 105.674C677.266 106.34 677.873 107.006 678.479 107.672" stroke="black" stroke-width="0.7114" stroke-miterlimit="10" stroke-linecap="round" stroke-linejoin="round"/>
<path d="M691.728 136.969C689.724 136.358 687.445 136.194 685.371 136.49" stroke="black" stroke-width="0.7114" stroke-miterlimit="10" stroke-linecap="round" stroke-linejoin="round"/>
<path d="M659.32 142.401L685.385 136.491" stroke="black" stroke-width="0.7114" stroke-miterlimit="10" stroke-linecap="round" stroke-linejoin="round"/>
<path d="M685.441 136.032C686.717 135.086 688.357 134.647 689.935 134.83" stroke="black" stroke-width="0.7114" stroke-miterlimit="10" stroke-linecap="round" stroke-linejoin="round"/>
<path d="M632.9 172.939L666.814 171.381L659.934 125.287L626.02 126.846L632.9 172.939Z" fill="#B37070"/>
<path d="M662.708 143.899C662.708 143.899 656.106 143.397 655.775 145.076C655.003 148.988 661.451 152.2 663.539 151.98C665.628 151.76 664.228 143.638 662.708 143.899Z" fill="#FFAE73"/>
<path d="M627.885 136.207C627.885 136.207 634.201 134.054 634.88 135.603C636.461 139.214 630.869 143.966 628.79 144.279C626.711 144.592 626.352 136.337 627.885 136.207Z" fill="#FFAE73"/>
<path d="M648.692 125.806C648.692 125.806 648.424 124.527 646.881 124.676C645.337 124.824 636.664 125.289 636.664 125.289C636.664 125.289 634.992 125.26 635.147 126.428L648.692 125.806Z" fill="#FF4F95"/>
<path d="M477.762 254.179L470.949 201.236C470.068 194.39 475.249 188.311 481.964 188.311H506.339C513.845 188.311 520.424 193.471 522.409 200.915L537.108 253.658L477.762 254.179Z" fill="#58C7B3"/>
<path d="M480.028 254.179L473.215 201.236C472.334 194.39 477.514 188.311 484.23 188.311H508.606C516.112 188.311 522.69 193.471 524.675 200.915L539.374 253.658L480.028 254.179Z" fill="#6FDDBF"/>
<path d="M481.459 207.846H519.536L518.614 204.536C517.165 199.104 512.365 195.338 506.888 195.338H489.101C484.201 195.338 480.421 199.774 481.064 204.77L481.459 207.846Z" stroke="black" stroke-width="0.6933" stroke-miterlimit="10"/>
<path d="M504.827 135.709C501.879 136.226 500.263 139.132 499.685 141.818C499.096 144.561 499.034 147.573 499.436 150.346C499.643 151.768 499.984 153.17 500.461 154.525C502.266 159.65 505.549 163.764 504.651 169.509H514.568L514.231 145.962L504.827 135.709Z" fill="black" stroke="black" stroke-width="0.6933" stroke-miterlimit="10" stroke-linecap="round" stroke-linejoin="round"/>
<path d="M502.779 139.464C501.445 142.304 501.26 145.583 501.768 148.68C502.275 151.777 503.437 154.725 504.707 157.595" stroke="white" stroke-width="0.6933" stroke-miterlimit="10" stroke-linecap="round" stroke-linejoin="round"/>
<path d="M504.746 151.149C505.471 153.924 506.678 156.571 508.3 158.935" stroke="white" stroke-width="0.6933" stroke-miterlimit="10" stroke-linecap="round" stroke-linejoin="round"/>
<path d="M507.676 149.564C508.278 152.082 509.172 154.53 510.332 156.845" stroke="black" stroke-width="0.6933" stroke-miterlimit="10" stroke-linecap="round" stroke-linejoin="round"/>
<path d="M504.669 139.26C503.947 140.58 503.89 141.848 504.665 143.194C505.146 144.032 505.9 144.711 506.784 145.102" fill="white"/>
<path d="M504.669 139.26C503.947 140.58 503.89 141.848 504.665 143.194C505.146 144.032 505.9 144.711 506.784 145.102" stroke="white" stroke-miterlimit="10"/>
<path d="M527.539 141.034C529.093 139.331 529.648 136.849 529.236 134.581C528.824 132.314 527.516 130.268 525.813 128.715C523.402 126.517 520.163 125.248 516.9 125.226C510.201 125.181 505.008 131.162 504.741 137.629C504.552 142.234 506.808 147.157 511.178 149.067L527.539 141.034Z" fill="black" stroke="black" stroke-width="0.6933" stroke-miterlimit="10" stroke-linecap="round" stroke-linejoin="round"/>
<path d="M527.821 167.676C527.821 167.676 519.946 170.164 520.749 176.651C521.359 181.577 523.842 205.498 525.54 209.111C530.32 219.274 540.805 226.503 549.265 230.317C549.265 230.317 550.609 229.926 551.424 229.499C552.174 229.105 553.161 228.032 553.161 228.032C553.161 228.032 536.252 204.658 535.987 201.688C535.722 198.717 535.264 164.8 527.821 167.676Z" fill="#C4CFE0"/>
<path d="M534.895 181.339C535.571 188.975 535.738 194.148 536.145 201.773" stroke="black" stroke-width="0.6933" stroke-miterlimit="10" stroke-linecap="round" stroke-linejoin="round"/>
<path d="M532.746 203.204C533.715 202.485 534.936 202.111 536.141 202.166" stroke="black" stroke-width="0.6933" stroke-miterlimit="10" stroke-linecap="round" stroke-linejoin="round"/>
<path d="M532.914 204.76C533.532 203.805 534.356 202.985 535.315 202.373C535.594 202.195 535.938 202.03 536.243 202.158" stroke="black" stroke-width="0.6933" stroke-miterlimit="10" stroke-linecap="round" stroke-linejoin="round"/>
<path d="M536.207 202.097C538.239 206.009 544.022 214.522 546.025 217.534C548.008 220.516 550.939 224.875 553.07 227.753" stroke="black" stroke-width="0.6933" stroke-miterlimit="10" stroke-linecap="round" stroke-linejoin="round"/>
<path d="M513.3 162.138L501.758 168.966C501.758 168.966 498.103 177.996 504.612 200.105L498.398 228.748C498.398 228.748 520.247 233.572 539.631 226.765L532.029 198.959L533.063 182.81L529.568 167.919L520.836 161.542L513.3 162.138Z" fill="white"/>
<path d="M511.078 166.074C514.232 168.879 521.349 169.472 524.311 166.065" stroke="black" stroke-width="0.6933" stroke-miterlimit="10" stroke-linecap="round" stroke-linejoin="round"/>
<path d="M511.82 191.188C516.038 199.101 523.015 205.51 531.258 209.042" stroke="black" stroke-width="0.6933" stroke-miterlimit="10" stroke-linecap="round" stroke-linejoin="round"/>
<path d="M518.918 195.273C521.158 197.667 524.093 199.404 527.269 200.218" stroke="black" stroke-width="0.6933" stroke-miterlimit="10" stroke-linecap="round" stroke-linejoin="round"/>
<path d="M522.28 158.878C522.146 157.148 522.075 155.412 522.034 153.676C522.02 153.121 522.356 149.3 522.412 149.305C518.538 148.965 514.664 148.625 510.79 148.285C511.482 151.846 511.959 155.511 511.471 159.12C511.237 160.854 510.778 162.562 510.159 164.197C510.113 164.32 510.061 164.44 510.012 164.561C510.88 165.289 512.456 166.003 515.33 166.523C521.052 167.556 523.551 165.795 523.622 164.825C523.742 163.213 522.486 161.574 522.28 158.878Z" fill="#FFAE73"/>
<path d="M521.999 152.241C521.999 152.241 522.032 155.667 522.279 158.878C516.417 159.171 512.888 153.888 511.379 150.925L521.999 152.241Z" fill="#F9924F"/>
<path d="M504.895 167.351C504.895 167.351 496.715 168.494 496.428 175.025C496.21 179.983 494.671 210.287 497.41 213.19C505.118 221.358 523.319 227.559 532.586 228.06C532.586 228.06 533.699 227.21 534.304 226.518C534.861 225.88 535.394 224.522 535.394 224.522C535.394 224.522 507.266 207.275 507.499 204.302C507.732 201.328 512.714 165.754 504.895 167.351Z" fill="white"/>
<path d="M509.584 182.002C508.981 189.643 508.496 196.827 507.629 204.413" stroke="black" stroke-width="0.6933" stroke-miterlimit="10" stroke-linecap="round" stroke-linejoin="round"/>
<path d="M504.055 205.256C505.13 204.708 506.395 204.542 507.575 204.797" stroke="black" stroke-width="0.6933" stroke-miterlimit="10" stroke-linecap="round" stroke-linejoin="round"/>
<path d="M503.984 206.821C504.752 205.982 505.702 205.311 506.749 204.867C507.054 204.738 507.421 204.632 507.701 204.809" stroke="black" stroke-width="0.6933" stroke-miterlimit="10" stroke-linecap="round" stroke-linejoin="round"/>
<path d="M507.645 204.743C509.939 207.747 516.814 211.81 519.77 213.894C522.697 215.959 532.178 222.385 535.205 224.299" stroke="black" stroke-width="0.6933" stroke-miterlimit="10" stroke-linecap="round" stroke-linejoin="round"/>
<path d="M524.545 156.003C523.767 156.005 522.987 155.942 522.215 155.865C518.889 155.531 515.15 154.911 512.695 152.504C510.121 149.979 508.348 146.639 507.726 143.085C507.25 140.362 506.96 137.486 507.989 134.825C509.014 132.173 511.328 130.547 513.976 129.731C522.763 127.021 526.735 134.439 527.7 137.361C528.663 140.283 528.25 155.415 524.545 156.003Z" fill="#FFAE73"/>
<path d="M511.683 143.383C515.851 142.018 519.577 139.339 522.199 135.823C523.428 134.175 524.451 132.189 524.185 130.151C524.185 130.151 522.31 124.637 513.671 127.067C505.031 129.496 506.179 139.687 506.179 139.687C506.179 139.687 505.355 145.452 508.726 145.587C509.757 145.628 511.683 143.383 511.683 143.383Z" fill="black" stroke="black" stroke-width="0.6933" stroke-miterlimit="10" stroke-linecap="round" stroke-linejoin="round"/>
<path d="M507.582 139.45C507.864 134.985 510.617 130.755 514.585 128.688" stroke="white" stroke-width="0.6933" stroke-miterlimit="10" stroke-linecap="round" stroke-linejoin="round"/>
<path d="M514.035 139.542C517.272 137.529 519.71 134.267 520.725 130.592" stroke="white" stroke-width="0.6933" stroke-miterlimit="10" stroke-linecap="round" stroke-linejoin="round"/>
<path d="M520.046 143.54C520.088 144.069 519.693 144.532 519.165 144.573C518.636 144.615 518.173 144.221 518.132 143.692C518.09 143.164 518.485 142.701 519.013 142.659C519.541 142.617 520.004 143.011 520.046 143.54Z" fill="black"/>
<path d="M527.37 142.959C527.412 143.488 527.017 143.951 526.489 143.992C525.961 144.034 525.498 143.64 525.456 143.111C525.414 142.583 525.809 142.12 526.337 142.078C526.866 142.036 527.328 142.43 527.37 142.959Z" fill="black"/>
<path d="M524.898 139.564C525.656 139.209 526.556 139.17 527.342 139.457" stroke="black" stroke-width="0.6933" stroke-miterlimit="10" stroke-linecap="round"/>
<path d="M517.453 140.59C518.276 140.1 519.298 139.954 520.225 140.195" stroke="black" stroke-width="0.6933" stroke-miterlimit="10" stroke-linecap="round"/>
<path d="M523.457 142.483C523.657 144.071 523.857 145.658 524.057 147.246" stroke="black" stroke-width="0.6933" stroke-miterlimit="10" stroke-linecap="round"/>
<path d="M523.45 145.397C523.468 145.39 523.486 145.383 523.504 145.376C524 145.183 524.179 145.202 524.694 145.383C525.836 145.787 527.098 146.267 528.239 146.673C528.033 148.185 527.885 149.58 527.651 151.08C527.427 152.51 526.995 153.974 526.518 155.342C526.442 155.558 526.372 156.011 526.178 156.151C525.987 156.287 525.463 156.238 525.232 156.254C524.528 156.305 523.822 156.321 523.116 156.3C521.704 156.261 520.297 156.082 518.92 155.768C518.232 155.612 517.551 155.42 516.881 155.197C516.216 154.974 514.779 154.767 514.456 154.085C514.293 153.74 514.306 153.341 514.321 152.96C514.37 151.75 514.419 150.542 514.468 149.332C514.491 148.761 514.416 148.078 514.541 147.522C514.633 147.113 514.803 147.089 515.203 147.034C517.514 146.716 519.787 146.424 522.053 145.844C522.527 145.724 522.993 145.573 523.45 145.397Z" fill="white"/>
<path d="M510.809 142.692C512.495 144.225 514.182 145.76 515.868 147.294" stroke="black" stroke-width="0.6933" stroke-miterlimit="10" stroke-linecap="round"/>
<path d="M511.117 148.444C512.203 150.24 513.289 152.036 514.375 153.832" stroke="black" stroke-width="0.6933" stroke-miterlimit="10" stroke-linecap="round"/>
<path d="M521.652 146.142C522.239 145.942 522.831 145.689 523.432 145.535C523.888 145.418 524.308 145.522 524.768 145.639C525.119 145.728 525.47 145.818 525.821 145.908" stroke="black" stroke-width="0.6933" stroke-miterlimit="10" stroke-linecap="round"/>
<path d="M520.176 148.66C522.568 148.275 525.029 148.328 527.402 148.816" stroke="black" stroke-width="0.6933" stroke-miterlimit="10" stroke-linecap="round"/>
<path d="M520.078 151.366C522.396 151.416 524.715 151.466 527.033 151.516" stroke="black" stroke-width="0.6933" stroke-miterlimit="10" stroke-linecap="round"/>
<path d="M519.414 153.875C521.779 153.977 524.142 154.078 526.506 154.18" stroke="black" stroke-width="0.6933" stroke-miterlimit="10" stroke-linecap="round"/>
<path d="M510.851 142.739C510.047 142.097 508.674 141.919 507.912 142.624C507.483 143.022 507.339 143.601 507.303 144.151C507.192 145.873 508.017 147.611 509.469 148.713C509.845 148.998 510.27 149.247 510.749 149.355C511.229 149.464 511.771 149.418 512.179 149.156C512.86 148.721 512.976 147.847 512.838 147.114C512.56 145.65 512.135 143.766 510.851 142.739Z" fill="#FFAE73"/>
<path d="M508.964 145.059C508.886 144.684 509.243 144.315 509.625 144.289C510.007 144.264 510.368 144.507 510.588 144.82C510.808 145.133 510.914 145.511 511.016 145.879C510.631 145.809 510.23 146.173 510.263 146.564C510.296 146.954 510.751 147.246 511.12 147.113" stroke="black" stroke-width="0.6933" stroke-miterlimit="10" stroke-linecap="round"/>
<path d="M511.821 144.214C511.821 143.367 511.217 142.569 510.42 142.282C509.629 141.998 508.337 142.089 507.829 142.84C506.996 144.07 507.482 145.798 508.193 146.964C509.021 148.321 510.467 149.258 512.064 149.376" stroke="black" stroke-width="0.6933" stroke-miterlimit="10" stroke-linecap="round"/>
<path d="M398.747 254.179L391.934 201.236C391.053 194.39 396.233 188.311 402.948 188.311H427.323C434.829 188.311 441.408 193.471 443.393 200.915L458.092 253.658L398.747 254.179Z" fill="#58C7B3"/>
<path d="M401.012 254.179L394.199 201.236C393.318 194.39 398.499 188.311 405.215 188.311H429.59C437.097 188.311 443.675 193.471 445.66 200.915L460.359 253.658L401.012 254.179Z" fill="#6FDDBF"/>
<path d="M402.452 207.847H440.529L439.606 204.537C438.157 199.105 433.357 195.339 427.88 195.339H410.093C405.194 195.339 401.413 199.775 402.056 204.771L402.452 207.847Z" stroke="black" stroke-width="0.6933" stroke-miterlimit="10"/>
<path d="M433.332 206.026C428.15 200.844 419.748 200.844 414.566 206.026C409.384 211.209 409.384 219.611 414.566 224.792C419.749 229.974 428.151 229.974 433.332 224.792C438.514 219.61 438.514 211.208 433.332 206.026ZM417.471 208.395C420.744 205.121 425.813 204.749 429.503 207.265L416.341 220.427C413.825 216.737 414.198 211.668 417.471 208.395ZM418.843 222.928L432.005 209.766C434.521 213.455 434.149 218.524 430.875 221.798C427.602 225.073 422.532 225.445 418.843 222.928Z" fill="#FF4F95"/>
<path d="M319.281 254.179L312.469 201.236C311.588 194.39 316.768 188.311 323.483 188.311H347.859C355.364 188.311 361.943 193.471 363.928 200.915L378.627 253.658L319.281 254.179Z" fill="#58C7B3"/>
<path d="M321.547 254.179L314.735 201.236C313.854 194.39 319.034 188.311 325.75 188.311H350.125C357.632 188.311 364.21 193.471 366.195 200.915L380.894 253.658L321.547 254.179Z" fill="#6FDDBF"/>
<path d="M322.979 207.847H361.056L360.134 204.537C358.685 199.105 353.885 195.339 348.407 195.339H330.621C325.721 195.339 321.94 199.775 322.583 204.771L322.979 207.847Z" stroke="black" stroke-width="0.6933" stroke-miterlimit="10"/>
<path d="M356.977 167.678C356.977 167.678 349.102 170.166 349.905 176.653C350.515 181.579 352.998 205.5 354.696 209.113C359.476 219.275 369.961 226.505 378.423 230.318C378.423 230.318 379.767 229.928 380.581 229.501C381.331 229.107 382.318 228.034 382.318 228.034C382.318 228.034 365.409 204.66 365.144 201.69C364.879 198.719 364.42 164.802 356.977 167.678Z" fill="#E6B225"/>
<path d="M364.051 181.341C364.727 188.976 364.894 194.15 365.302 201.775" stroke="black" stroke-width="0.6933" stroke-miterlimit="10" stroke-linecap="round" stroke-linejoin="round"/>
<path d="M361.902 203.206C362.872 202.487 364.092 202.113 365.298 202.168" stroke="black" stroke-width="0.6933" stroke-miterlimit="10" stroke-linecap="round" stroke-linejoin="round"/>
<path d="M362.07 204.762C362.688 203.807 363.512 202.987 364.471 202.375C364.75 202.197 365.094 202.032 365.399 202.16" stroke="black" stroke-width="0.6933" stroke-miterlimit="10" stroke-linecap="round" stroke-linejoin="round"/>
<path d="M365.363 202.099C367.395 206.011 373.178 214.524 375.181 217.536C377.164 220.518 380.096 224.877 382.227 227.755" stroke="black" stroke-width="0.6933" stroke-miterlimit="10" stroke-linecap="round" stroke-linejoin="round"/>
<path d="M342.503 162.142L330.961 168.97C330.961 168.97 327.307 178 333.815 200.109L327.602 228.752C327.602 228.752 349.45 233.576 368.835 226.769L361.232 198.963L362.266 182.814L358.772 167.923L350.039 161.545L342.503 162.142Z" fill="#FFE573"/>
<path d="M341.023 191.191C345.241 199.105 352.218 205.513 360.461 209.046" stroke="black" stroke-width="0.6933" stroke-miterlimit="10" stroke-linecap="round" stroke-linejoin="round"/>
<path d="M348.121 195.277C350.362 197.671 353.296 199.408 356.473 200.222" stroke="black" stroke-width="0.6933" stroke-miterlimit="10" stroke-linecap="round" stroke-linejoin="round"/>
<path d="M351.463 158.882C351.33 157.152 351.259 155.416 351.217 153.68C351.204 153.125 351.539 149.304 351.596 149.309C347.722 148.969 343.848 148.629 339.974 148.289C340.665 151.85 341.143 155.514 340.655 159.124C340.42 160.858 339.962 162.565 339.342 164.201C339.296 164.324 339.244 164.444 339.195 164.565C340.064 165.293 341.639 166.007 344.514 166.527C350.235 167.56 352.734 165.798 352.805 164.829C352.926 163.217 351.67 161.578 351.463 158.882Z" fill="#FFAE73"/>
<path d="M351.183 152.243C351.183 152.243 351.215 155.669 351.462 158.88C345.601 159.173 342.072 153.891 340.562 150.928L351.183 152.243Z" fill="#F9924F"/>
<path d="M334.055 167.352C334.055 167.352 325.876 168.496 325.588 175.026C325.37 179.985 323.831 210.288 326.57 213.191C334.278 221.36 352.479 227.561 361.747 228.061C361.747 228.061 362.859 227.212 363.464 226.519C364.021 225.881 364.554 224.524 364.554 224.524C364.554 224.524 336.426 207.277 336.659 204.303C336.894 201.33 341.874 165.756 334.055 167.352Z" fill="#FFE573"/>
<path d="M338.744 182.003C338.141 189.644 337.656 196.828 336.789 204.414" stroke="black" stroke-width="0.6933" stroke-miterlimit="10" stroke-linecap="round" stroke-linejoin="round"/>
<path d="M333.215 205.258C334.29 204.709 335.555 204.544 336.735 204.798" stroke="black" stroke-width="0.6933" stroke-miterlimit="10" stroke-linecap="round" stroke-linejoin="round"/>
<path d="M333.145 206.823C333.912 205.984 334.862 205.312 335.91 204.868C336.214 204.74 336.581 204.634 336.861 204.811" stroke="black" stroke-width="0.6933" stroke-miterlimit="10" stroke-linecap="round" stroke-linejoin="round"/>
<path d="M336.805 204.745C339.099 207.748 345.974 211.811 348.93 213.896C351.856 215.961 361.337 222.386 364.364 224.3" stroke="black" stroke-width="0.6933" stroke-miterlimit="10" stroke-linecap="round" stroke-linejoin="round"/>
<path d="M353.713 156.006C352.935 156.008 352.155 155.946 351.383 155.868C348.057 155.535 344.318 154.914 341.863 152.507C339.289 149.982 337.516 146.643 336.894 143.089C336.418 140.365 336.128 137.49 337.157 134.828C338.182 132.177 340.496 130.551 343.144 129.734C351.931 127.024 355.903 134.442 356.868 137.365C357.831 140.286 357.418 155.418 353.713 156.006Z" fill="#FFAE73"/>
<path d="M336.623 131.981C336.672 131.338 336.819 130.466 337.102 129.887C337.243 129.598 337.912 128.529 338.087 128.357C338.209 129.019 338.33 129.681 338.452 130.343C339.52 127.719 341.92 125.68 344.681 125.047C347.442 124.416 350.491 125.21 352.593 127.108C354.057 128.43 355.038 130.2 356.366 131.658C357.694 133.118 359.623 134.311 361.552 133.899C360.281 134.532 359.009 135.166 357.737 135.799C358.699 136.176 359.66 136.603 360.623 136.979C358.609 137.321 355.57 136.731 353.703 135.904C351.835 135.077 350.074 134.007 348.154 133.308C346.388 132.665 344.47 132.3 342.683 132.831C343.032 136.22 342.388 140.496 341.145 143.668L336.62 143.638C334.77 140.524 334.662 136.474 335.991 133.258C335.514 133.144 335.036 133.028 334.559 132.914C335.063 132.319 335.843 131.966 336.623 131.981Z" fill="#694133" stroke="#694133" stroke-width="0.6933" stroke-miterlimit="10" stroke-linecap="round" stroke-linejoin="round"/>
<path d="M336.879 135.075C336.253 137.337 336.233 139.763 336.822 142.034" stroke="white" stroke-width="0.6933" stroke-miterlimit="10" stroke-linecap="round"/>
<path d="M341.019 134.139C341.543 136.352 341.497 138.696 340.887 140.886" stroke="white" stroke-width="0.6933" stroke-miterlimit="10" stroke-linecap="round"/>
<path d="M339.945 135.42C340.163 137.065 340.084 138.748 339.711 140.365" stroke="white" stroke-width="0.6933" stroke-miterlimit="10" stroke-linecap="round"/>
<path d="M340.43 129.667C341.677 127.575 344.239 126.459 346.669 126.62C349.099 126.782 351.36 128.087 353.017 129.874" stroke="white" stroke-width="0.6933" stroke-miterlimit="10" stroke-linecap="round"/>
<path d="M343.305 131.104C344.998 130.473 346.896 131.061 348.518 131.858C350.139 132.656 351.7 133.679 353.483 133.97" stroke="white" stroke-width="0.6933" stroke-miterlimit="10" stroke-linecap="round"/>
<path d="M341.352 130.332C342.318 129.48 343.535 128.917 344.81 128.733" stroke="white" stroke-width="0.6933" stroke-miterlimit="10" stroke-linecap="round" stroke-linejoin="round"/>
<path d="M349.218 143.544C349.26 144.073 348.865 144.536 348.337 144.577C347.808 144.619 347.345 144.224 347.304 143.696C347.262 143.168 347.656 142.705 348.185 142.663C348.713 142.621 349.175 143.015 349.218 143.544Z" fill="black"/>
<path d="M356.542 142.963C356.584 143.492 356.189 143.955 355.661 143.996C355.133 144.037 354.669 143.643 354.628 143.115C354.586 142.587 354.981 142.124 355.509 142.082C356.038 142.04 356.5 142.434 356.542 142.963Z" fill="black"/>
<path d="M354.07 139.568C354.828 139.213 355.728 139.174 356.514 139.461" stroke="black" stroke-width="0.6933" stroke-miterlimit="10" stroke-linecap="round"/>
<path d="M346.625 140.594C347.448 140.104 348.47 139.958 349.397 140.199" stroke="black" stroke-width="0.6933" stroke-miterlimit="10" stroke-linecap="round"/>
<path d="M352.629 142.487C352.829 144.075 353.029 145.662 353.228 147.25" stroke="black" stroke-width="0.6933" stroke-miterlimit="10" stroke-linecap="round"/>
<path d="M352.622 145.399C352.64 145.392 352.658 145.385 352.676 145.378C353.172 145.184 353.35 145.204 353.866 145.385C355.008 145.789 356.27 146.269 357.41 146.675C357.205 148.187 357.057 149.582 356.822 151.082C356.599 152.512 356.167 153.976 355.69 155.344C355.614 155.56 355.544 156.013 355.35 156.153C355.159 156.289 354.635 156.24 354.404 156.256C353.7 156.307 352.994 156.323 352.288 156.302C350.876 156.263 349.469 156.084 348.092 155.77C347.404 155.614 346.723 155.422 346.053 155.198C345.387 154.976 343.951 154.769 343.628 154.087C343.465 153.742 343.477 153.343 343.493 152.962C343.542 151.752 343.591 150.544 343.64 149.334C343.663 148.763 343.588 148.08 343.713 147.524C343.805 147.115 343.975 147.091 344.375 147.036C346.685 146.718 348.959 146.426 351.225 145.846C351.699 145.726 352.165 145.575 352.622 145.399Z" fill="white"/>
<path d="M339.98 142.693C341.667 144.227 343.354 145.761 345.04 147.295" stroke="black" stroke-width="0.6933" stroke-miterlimit="10" stroke-linecap="round"/>
<path d="M340.277 148.446C341.363 150.241 342.45 152.037 343.535 153.834" stroke="black" stroke-width="0.6933" stroke-miterlimit="10" stroke-linecap="round"/>
<path d="M350.824 146.143C351.411 145.943 352.003 145.691 352.604 145.537C353.06 145.42 353.481 145.523 353.94 145.641C354.292 145.73 354.642 145.819 354.993 145.91" stroke="black" stroke-width="0.6933" stroke-miterlimit="10" stroke-linecap="round"/>
<path d="M349.348 148.661C351.74 148.277 354.2 148.33 356.574 148.818" stroke="black" stroke-width="0.6933" stroke-miterlimit="10" stroke-linecap="round"/>
<path d="M349.25 151.368C351.568 151.418 353.887 151.468 356.205 151.518" stroke="black" stroke-width="0.6933" stroke-miterlimit="10" stroke-linecap="round"/>
<path d="M348.586 153.877C350.95 153.979 353.315 154.08 355.678 154.182" stroke="black" stroke-width="0.6933" stroke-miterlimit="10" stroke-linecap="round"/>
<path d="M348.388 147.237C350.104 147.237 351.495 145.846 351.495 144.13C351.495 142.414 350.104 141.022 348.388 141.022C346.672 141.022 345.281 142.414 345.281 144.13C345.281 145.846 346.672 147.237 348.388 147.237Z" stroke="black" stroke-width="0.6933" stroke-miterlimit="10" stroke-linecap="round" stroke-linejoin="round"/>
<path d="M356.748 147.237C358.464 147.237 359.855 145.846 359.855 144.13C359.855 142.414 358.464 141.022 356.748 141.022C355.032 141.022 353.641 142.414 353.641 144.13C353.641 145.846 355.032 147.237 356.748 147.237Z" stroke="black" stroke-width="0.6933" stroke-miterlimit="10" stroke-linecap="round" stroke-linejoin="round"/>
<path d="M351.559 143.7C352.255 143.493 353.013 143.497 353.709 143.71" stroke="black" stroke-width="0.6933" stroke-miterlimit="10" stroke-linecap="round" stroke-linejoin="round"/>
<path d="M341.305 143.581C342.615 143.84 343.926 144.098 345.237 144.357" stroke="black" stroke-width="0.6933" stroke-miterlimit="10" stroke-linecap="round" stroke-linejoin="round"/>
<path d="M340.039 142.746C339.234 142.103 337.861 141.925 337.1 142.631C336.67 143.028 336.526 143.608 336.49 144.157C336.379 145.88 337.204 147.617 338.656 148.719C339.033 149.004 339.457 149.253 339.937 149.362C340.416 149.47 340.958 149.424 341.366 149.163C342.048 148.727 342.164 147.853 342.025 147.12C341.748 145.656 341.322 143.772 340.039 142.746Z" fill="#FFAE73"/>
<path d="M338.151 145.065C338.074 144.691 338.43 144.322 338.812 144.296C339.195 144.271 339.555 144.513 339.775 144.826C339.995 145.139 340.102 145.517 340.204 145.886C339.818 145.816 339.418 146.18 339.45 146.57C339.483 146.96 339.938 147.252 340.307 147.119" stroke="black" stroke-width="0.6933" stroke-miterlimit="10" stroke-linecap="round"/>
<path d="M341.007 144.22C341.008 143.373 340.405 142.576 339.607 142.288C338.816 142.004 337.524 142.095 337.016 142.847C336.184 144.076 336.669 145.805 337.38 146.97C338.208 148.328 339.654 149.264 341.251 149.383" stroke="black" stroke-width="0.6933" stroke-miterlimit="10" stroke-linecap="round"/>
<path d="M347.99 166.976C346.607 166.846 340.841 165.769 340.841 165.769C340.841 165.769 337.117 167.049 335.273 167.689C336.932 165.302 338.59 162.914 340.248 160.528C340.708 161.574 342.604 163.807 343.868 164.775C344.671 165.39 346.949 166.878 347.99 166.976Z" stroke="black" stroke-width="0.6933" stroke-miterlimit="10" stroke-linecap="round" stroke-linejoin="round"/>
<path d="M347.973 166.915C349.095 166.784 353.819 165.797 353.819 165.797L356.406 167.717C356.406 167.717 353.208 162.977 351.863 160.589C352.265 162.464 351.737 163.825 351.084 164.645C350.484 165.397 348.817 166.816 347.973 166.915Z" stroke="black" stroke-width="0.6933" stroke-miterlimit="10" stroke-linecap="round" stroke-linejoin="round"/>
<path d="M342.121 167.285C345.308 168.632 348.757 168.931 352.146 167.656" stroke="black" stroke-width="0.6933" stroke-miterlimit="10" stroke-linecap="round" stroke-linejoin="round"/>
<path d="M71.7253 124.387L93.5327 124.493L82.5252 163.664L61.5508 159.315L71.7253 124.387Z" fill="#FDDBBA"/>
<path d="M82.3489 148.164C82.3489 148.164 82.42 147.696 82.9811 147.085C83.3424 146.424 84.2042 144.432 84.2445 143.972C84.3704 142.521 85.3561 143.029 85.5108 144.303C85.5444 144.579 85.3763 145.258 85.3734 145.553C86.583 146.043 87.8138 145.037 88.1202 143.72C88.2672 143.088 88.493 142.462 88.5881 142.054C88.7236 141.473 90.1292 142.442 90.1686 143.445C90.231 145.059 90.2061 149.427 89.8006 150.127C89.1175 151.306 85.1976 152.508 83.1819 152.766L80.7896 152.952L79.3984 149.092L82.3489 148.164Z" fill="#FFAE73"/>
<path d="M31.1172 107.376L36.9654 113.234L47.1398 113.455C47.1696 112.636 47.208 109.225 47.2397 106.133C47.2407 105.951 47.2417 105.768 47.2436 105.59C47.2666 102.96 47.2849 100.699 47.2849 100.699L38.9801 94.7521L35.8845 92.5347C35.8816 92.5894 35.5636 95.3929 35.5146 95.8013C34.6662 103.064 31.1172 107.376 31.1172 107.376Z" fill="#FFAE73"/>
<path d="M42.1949 100.882C43.6235 103.073 45.3481 105.014 47.2235 106.814C47.2264 106.587 47.2283 106.359 47.2303 106.133C47.2312 105.951 47.2322 105.768 47.2341 105.59C47.2571 102.96 47.2754 100.699 47.2754 100.699L39.1406 94.873C40.0466 96.9358 40.9642 98.9928 42.1949 100.882Z" fill="#FFA05E"/>
<path d="M58.6864 183.015C58.5442 199.566 57.4412 238.284 56.6284 239.072C48.0084 247.393 10.091 236.791 8.08106 227.624C7.29035 224.014 17.927 189.965 17.927 189.965C17.927 189.965 16.1159 147.497 17.6993 133.925C19.2941 120.257 25.295 107.265 30.4447 105.752C33.499 104.855 49.8349 110.136 49.8349 110.136C49.8349 110.136 52.3953 116.837 54.0766 125.376C54.6992 128.54 56.7322 151.114 57.9197 166.198C58.2319 170.219 58.4894 173.707 58.6402 176.153C58.7008 177.163 58.7142 179.626 58.6864 183.015Z" fill="white"/>
<path d="M34.9766 199.661C40.4702 200.071 45.9648 200.48 51.4584 200.89" stroke="black" stroke-width="0.6933" stroke-miterlimit="10" stroke-linecap="round"/>
<path d="M45.8329 105.991C45.6388 105.909 34.6275 100.969 33.3391 101.395C32.0507 101.82 30.4453 105.753 30.4453 105.753L49.8354 110.137C49.8354 110.137 48.3097 107.034 45.8329 105.991Z" fill="#CCCCCC"/>
<path d="M58.6919 183.018C22.7152 158.655 25.6474 125.146 25.6474 125.146C39.6852 133.065 53.5989 151.811 57.9243 166.2C58.2365 170.221 58.494 173.708 58.6448 176.154C58.7063 177.166 58.7198 179.628 58.6919 183.018Z" fill="#CCCCCC"/>
<path d="M39.4304 116.755L52.8052 152.032L81.1833 148.033L83.3191 153.228C83.3191 153.228 56.6022 170.83 46.8927 167.285C31.5118 161.67 22.2347 134.425 25.6156 125.142C28.9975 115.859 39.4304 116.755 39.4304 116.755Z" fill="white"/>
<path d="M23.4727 132.323C23.4727 132.323 26.9122 145.618 33.0303 154.974C36.6659 160.533 40.9432 164.989 47.0411 167.619" stroke="black" stroke-width="0.6933" stroke-miterlimit="10" stroke-linecap="round"/>
<path d="M39.4336 116.754L52.8084 152.032" stroke="black" stroke-width="0.6933" stroke-miterlimit="10" stroke-linecap="round"/>
<path d="M50.1797 153.366C51.054 152.789 52.8026 152.031 52.8026 152.031" stroke="black" stroke-width="0.6933" stroke-miterlimit="10" stroke-linecap="round"/>
<path d="M51.5156 154.475C51.9585 153.642 52.8127 152.031 52.8127 152.031" stroke="black" stroke-width="0.6933" stroke-miterlimit="10" stroke-linecap="round"/>
<path d="M81.1905 148.033C71.9999 149.357 52.8125 152.032 52.8125 152.032" stroke="black" stroke-width="0.6933" stroke-miterlimit="10" stroke-linecap="round"/>
<path d="M81.1953 148.033C81.7497 149.277 82.7758 151.985 83.3311 153.228" stroke="black" stroke-width="0.6933" stroke-miterlimit="10" stroke-linecap="round"/>
<path d="M41.4905 118.343C41.3455 119.36 41.2388 120.106 41.0938 121.122" stroke="black" stroke-width="0.6933" stroke-miterlimit="10" stroke-linecap="round"/>
<path d="M52.9148 103.01C54.2637 100.396 56.1603 94.876 56.1603 94.876C56.1603 94.876 56.9942 89.1162 57.0403 86.55C57.123 81.9307 55.9729 76.8866 52.3336 73.7565C47.5538 69.6454 40.1511 69.8404 35.9881 74.4156C32.2767 78.495 32 85.8448 33.9763 90.9186C35.5183 94.875 39.0577 97.1607 42.5741 99.2071C45.074 100.662 47.6844 101.96 50.463 102.792C51.2517 103.027 52.1443 103.208 52.9148 103.01Z" fill="#FFAE73"/>
<path d="M52.6797 85.8984C53.4079 85.9292 54.1352 85.9599 54.8635 85.9907" stroke="black" stroke-width="0.6933" stroke-miterlimit="10" stroke-linecap="round"/>
<path d="M54.6338 89.0224C54.6338 89.9265 54.3283 90.6595 53.9517 90.6595C53.5751 90.6595 53.2695 89.9265 53.2695 89.0224C53.2695 88.1183 53.5751 87.3853 53.9517 87.3853C54.3283 87.3853 54.6338 88.1183 54.6338 89.0224Z" fill="black"/>
<path d="M55.2914 77.5293C52.9001 77.7983 50.4982 77.7993 48.1616 77.2238C48.102 79.0857 48.078 80.9535 47.7773 82.7914C47.4756 84.6293 46.9241 86.4481 45.9432 88.0314L40.9405 92.1425C40.3756 92.7593 40.1248 93.4232 39.9067 94.2302C38.4723 94.138 37.1359 94.0237 35.7015 93.9314C34.5015 92.5893 33.778 90.8878 33.3169 89.1641C32.0035 84.2566 31.7998 77.8723 35.9887 74.2329C38.724 71.857 42.1376 70.4629 45.752 70.7204C47.7696 70.8645 49.4721 71.441 51.1352 72.591C52.7982 73.7401 54.8062 75.5655 55.2914 77.5293Z" fill="#B36C3B" stroke="#8E4E23" stroke-miterlimit="10"/>
<path d="M35.9492 74.0026C35.9607 73.0572 36.3806 72.1233 37.0791 71.4854" stroke="#8E4E23" stroke-width="0.6933" stroke-miterlimit="10" stroke-linecap="round"/>
<path d="M49.9141 74.1216C50.039 74.1398 50.1648 74.1581 50.2897 74.1763" stroke="#8E4E23" stroke-width="0.6933" stroke-miterlimit="10" stroke-linecap="round"/>
<path d="M52.2148 75.9028C52.3049 75.9212 52.3949 75.9386 52.4849 75.957" stroke="#8E4E23" stroke-width="0.6933" stroke-miterlimit="10" stroke-linecap="round"/>
<path d="M43.832 75.2046C43.9046 75.2046 43.9763 75.2046 44.0479 75.2046" stroke="#8E4E23" stroke-width="0.6933" stroke-miterlimit="10" stroke-linecap="round"/>
<path d="M44.5352 72.4703C44.6077 72.4354 44.6803 72.3996 44.7529 72.3647" stroke="#8E4E23" stroke-width="0.6933" stroke-miterlimit="10" stroke-linecap="round"/>
<path d="M45.0898 79.5566C45.1615 79.5208 45.2341 79.485 45.3067 79.4482" stroke="#8E4E23" stroke-width="0.6933" stroke-miterlimit="10" stroke-linecap="round"/>
<path d="M37.1172 79.2862C37.1714 79.1961 37.2256 79.1061 37.2798 79.0161" stroke="#8E4E23" stroke-width="0.6933" stroke-miterlimit="10" stroke-linecap="round"/>
<path d="M36.5838 76.1347C36.5302 76.0976 36.4755 76.0605 36.4219 76.0234" stroke="#8E4E23" stroke-width="0.6933" stroke-miterlimit="10" stroke-linecap="round"/>
<path d="M35.3672 82.5029C35.4218 82.5576 35.4765 82.6112 35.5311 82.6659" stroke="#8E4E23" stroke-width="0.6933" stroke-miterlimit="10" stroke-linecap="round"/>
<path d="M36.2109 85.0884C36.2642 85.161 36.3184 85.2336 36.3716 85.3062" stroke="#8E4E23" stroke-width="0.6933" stroke-miterlimit="10" stroke-linecap="round"/>
<path d="M42.875 83.2041C42.9108 83.2225 42.9476 83.2399 42.9834 83.2583" stroke="#8E4E23" stroke-width="0.6933" stroke-miterlimit="10" stroke-linecap="round"/>
<path d="M41.4688 80.1783C41.5413 80.1638 41.6149 80.1503 41.6875 80.1357" stroke="#8E4E23" stroke-width="0.6933" stroke-miterlimit="10" stroke-linecap="round"/>
<path d="M45.3516 83.5801C45.4416 83.6343 45.5316 83.6885 45.6226 83.7427" stroke="#8E4E23" stroke-width="0.6933" stroke-miterlimit="10" stroke-linecap="round"/>
<path d="M35.8995 73.9025C35.5056 73.8468 35.1127 73.7911 34.7188 73.7363" stroke="#8E4E23" stroke-width="0.6933" stroke-miterlimit="10" stroke-linecap="round"/>
<path d="M37.0547 91.1602C37.1089 91.2686 37.1621 91.377 37.2163 91.4854" stroke="#8E4E23" stroke-width="0.6933" stroke-miterlimit="10" stroke-linecap="round"/>
<path d="M38.7031 92.1621C38.7931 92.2163 38.8832 92.2715 38.9722 92.3257" stroke="#8E4E23" stroke-width="0.6933" stroke-miterlimit="10" stroke-linecap="round"/>
<path d="M34.5781 88.6338C34.613 88.7248 34.6468 88.8158 34.6817 88.9058" stroke="#8E4E23" stroke-width="0.6933" stroke-miterlimit="10" stroke-linecap="round"/>
<path d="M37.9258 89.1113C38.0158 89.1655 38.1058 89.2197 38.1968 89.2739" stroke="#8E4E23" stroke-width="0.6933" stroke-miterlimit="10" stroke-linecap="round"/>
<path d="M34.2936 84.4395C34.1687 84.4213 34.0429 84.404 33.918 84.3857" stroke="#8E4E23" stroke-width="0.6933" stroke-miterlimit="10" stroke-linecap="round"/>
<path d="M34.0156 80.6822C34.0156 80.5921 34.0156 80.5021 34.0156 80.4121" stroke="#8E4E23" stroke-width="0.6933" stroke-miterlimit="10" stroke-linecap="round"/>
<path d="M40.0156 74.8329C40.0156 74.7782 40.0156 74.7236 40.0156 74.6689" stroke="#8E4E23" stroke-width="0.6933" stroke-miterlimit="10" stroke-linecap="round"/>
<path d="M38.5273 85.4062C38.5632 85.4062 38.5999 85.4062 38.6358 85.4062" stroke="#8E4E23" stroke-width="0.6933" stroke-miterlimit="10" stroke-linecap="round"/>
<path d="M38.5273 82.8311C38.5632 82.8127 38.5999 82.7952 38.6358 82.7769" stroke="#8E4E23" stroke-width="0.6933" stroke-miterlimit="10" stroke-linecap="round"/>
<path d="M40.1992 79.0726C40.2178 79.018 40.2353 78.9633 40.2539 78.9087" stroke="#8E4E23" stroke-width="0.6933" stroke-miterlimit="10" stroke-linecap="round"/>
<path d="M40.2422 87.1279C40.2606 87.0554 40.278 86.9837 40.2964 86.9121" stroke="#8E4E23" stroke-width="0.6933" stroke-miterlimit="10" stroke-linecap="round"/>
<path d="M47.1758 75.6338C47.2484 75.6696 47.32 75.7064 47.3926 75.7422" stroke="#8E4E23" stroke-width="0.6933" stroke-miterlimit="10" stroke-linecap="round"/>
<path d="M46.6836 101.457L49.8416 93.4368L56.7015 90.6055L56.665 96.0136L53.2168 103.2C53.2168 103.2 50.1318 104.107 46.6836 101.457Z" fill="white"/>
<path d="M54.2852 91.7134C55.0461 91.3118 56.0193 90.8996 56.7803 90.498" stroke="black" stroke-width="0.6933" stroke-miterlimit="10" stroke-linecap="round"/>
<path d="M45.2969 86.9854C46.6573 89.2105 48.6951 91.7786 50.0555 94.0047" stroke="black" stroke-width="0.6933" stroke-miterlimit="10" stroke-linecap="round"/>
<path d="M43.2148 94.3906C44.6214 96.6446 46.028 98.8995 47.4336 101.153" stroke="black" stroke-width="0.6933" stroke-miterlimit="10" stroke-linecap="round"/>
<path d="M53.5117 96.0591C54.2563 96.1801 55.0009 96.3012 55.7445 96.4222" stroke="black" stroke-width="0.6933" stroke-miterlimit="10" stroke-linecap="round"/>
<path d="M52.918 98.4785C53.4839 98.6428 54.0497 98.8061 54.6156 98.9704" stroke="black" stroke-width="0.6933" stroke-miterlimit="10" stroke-linecap="round"/>
<path d="M52.1172 100.795C52.6235 100.974 53.1298 101.153 53.6361 101.332" stroke="black" stroke-width="0.6933" stroke-miterlimit="10" stroke-linecap="round"/>
<path d="M45.7319 88.2856C45.4802 87.3729 44.8086 86.3679 43.9679 85.902C42.8362 85.2736 41.6467 86.1335 41.1126 87.1298C40.3478 88.5565 40.3305 90.7173 40.9358 92.0528C41.4133 93.1058 42.3097 93.933 43.4088 94.3355" fill="#FFAE73"/>
<path d="M45.7319 88.2856C45.4802 87.3729 44.8086 86.3679 43.9679 85.902C42.8362 85.2736 41.6467 86.1335 41.1126 87.1298C40.3478 88.5565 40.3305 90.7173 40.9358 92.0528C41.4133 93.1058 42.3097 93.933 43.4088 94.3355" stroke="black" stroke-width="0.6933" stroke-miterlimit="10" stroke-linecap="round"/>
<path d="M42.8594 88.6157C43.5069 89.0548 43.898 89.8465 43.8518 90.6276C43.4589 90.7371 43.1726 91.1473 43.2053 91.5537C43.2389 91.9601 43.5876 92.3185 43.9931 92.3627" stroke="black" stroke-width="0.6933" stroke-miterlimit="10" stroke-linecap="round"/>
</g>
<defs>
<clipPath id="clip0_1007_62265">
<rect width="789" height="205" rx="10" fill="white"/>
</clipPath>
</defs>
</svg>
