<svg width="20" height="20" viewBox="0 0 20 20" fill="none" xmlns="http://www.w3.org/2000/svg">
<path d="M5.60929 4.17983C5.20936 4.17983 4.87772 3.86402 4.87772 3.48319V0.696638C4.87772 0.315809 5.20936 0 5.60929 0C6.00922 0 6.34086 0.315809 6.34086 0.696638V3.48319C6.34086 3.86402 6.00922 4.17983 5.60929 4.17983ZM13.4127 4.17983C13.0128 4.17983 12.6812 3.86402 12.6812 3.48319V0.696638C12.6812 0.315809 13.0128 0 13.4127 0C13.8127 0 14.1443 0.315809 14.1443 0.696638V3.48319C14.1443 3.86402 13.8127 4.17983 13.4127 4.17983ZM6.09701 12.3063C5.9702 12.3063 5.84339 12.2785 5.72634 12.232C5.59954 12.1856 5.50199 12.1206 5.40445 12.037C5.22887 11.8605 5.12158 11.619 5.12158 11.3775C5.12158 11.136 5.22887 10.8945 5.40445 10.718C5.50199 10.6344 5.60929 10.5694 5.72634 10.5229C5.96382 10.43 6.23019 10.43 6.46767 10.5229C6.58472 10.5694 6.69202 10.6344 6.78956 10.718C6.82858 10.7644 6.87735 10.8109 6.90661 10.8573C6.94563 10.9131 6.97489 10.9688 6.9944 11.0245C7.02366 11.0803 7.04317 11.136 7.05293 11.1917C7.06268 11.2567 7.07244 11.3218 7.07244 11.3775C7.07244 11.619 6.96514 11.8605 6.78956 12.037C6.69202 12.1206 6.58472 12.1856 6.46767 12.232C6.35062 12.2785 6.22381 12.3063 6.09701 12.3063ZM9.51101 12.3073C9.38421 12.3073 9.2574 12.2794 9.14035 12.233C9.01354 12.1865 8.916 12.1215 8.81846 12.0379C8.64288 11.8614 8.53558 11.6199 8.53558 11.3784C8.53558 11.3227 8.54534 11.2577 8.55509 11.1926C8.56485 11.1369 8.58435 11.0812 8.61362 11.0255C8.63312 10.9697 8.66239 10.914 8.7014 10.8583L8.81846 10.7189C9.17937 10.3753 9.8329 10.3753 10.2036 10.7189L10.3206 10.8583C10.3596 10.914 10.3889 10.9697 10.4084 11.0255C10.4377 11.0812 10.4572 11.1369 10.4669 11.1926C10.4767 11.2577 10.4864 11.3227 10.4864 11.3784C10.4864 11.6199 10.3791 11.8614 10.2036 12.0379C10.0182 12.2051 9.77438 12.3073 9.51101 12.3073ZM6.09701 15.5573C5.9702 15.5573 5.84339 15.5294 5.72634 15.483C5.60929 15.4366 5.50199 15.3715 5.40445 15.2879C5.22887 15.1115 5.12158 14.87 5.12158 14.6285C5.12158 14.5727 5.13133 14.5077 5.14108 14.452C5.15084 14.387 5.17035 14.3312 5.19961 14.2755C5.21912 14.2198 5.24838 14.164 5.2874 14.1083C5.31666 14.0619 5.36543 14.0154 5.40445 13.969C5.50199 13.8854 5.60929 13.8204 5.72634 13.7739C5.96382 13.681 6.23019 13.681 6.46767 13.7739C6.58472 13.8204 6.69202 13.8854 6.78956 13.969C6.82858 14.0154 6.87735 14.0619 6.90661 14.1083C6.94563 14.164 6.97489 14.2198 6.9944 14.2755C7.02366 14.3312 7.04317 14.387 7.05293 14.452C7.06268 14.5077 7.07244 14.5727 7.07244 14.6285C7.07244 14.87 6.96514 15.1115 6.78956 15.2879C6.69202 15.3715 6.58472 15.4366 6.46767 15.483C6.35062 15.5294 6.22381 15.5573 6.09701 15.5573ZM17.8022 7.97882H1.21985C0.819928 7.97882 0.488281 7.66301 0.488281 7.28219C0.488281 6.90136 0.819928 6.58555 1.21985 6.58555H17.8022C18.2021 6.58555 18.5337 6.90136 18.5337 7.28219C18.5337 7.66301 18.2021 7.97882 17.8022 7.97882ZM13.2372 20C12.8665 20 12.5153 19.87 12.2617 19.6285C11.9593 19.3405 11.8228 18.9225 11.8911 18.486L12.0764 17.232C12.1252 16.9069 12.33 16.5168 12.5739 16.2846L16.0269 12.9965C16.4951 12.5506 16.9535 12.3184 17.451 12.272C18.0655 12.2162 18.6605 12.4577 19.2263 12.9965C19.8213 13.5631 20.6212 14.7148 19.2263 16.0431L15.7733 19.3312C15.5294 19.5634 15.1197 19.7585 14.7783 19.8049L13.4615 19.9814C13.3835 19.9907 13.3152 20 13.2372 20ZM17.6168 13.656H17.5876C17.451 13.6652 17.2657 13.786 17.0608 13.9811L13.6078 17.2692C13.5683 17.3148 13.5415 17.3691 13.5298 17.4271L13.3542 18.5881L14.5735 18.421C14.6125 18.4117 14.7101 18.3652 14.7393 18.3374L18.1923 15.0492C18.6215 14.6405 18.6801 14.4362 18.1923 13.9718C18.0363 13.8324 17.8119 13.656 17.6168 13.656Z" fill="#17CF9D"/>
<path d="M17.5932 16C17.5557 16 17.5181 15.9946 17.4858 15.9839C17.1355 15.8845 16.8164 15.6973 16.5588 15.44C16.3013 15.1827 16.1139 14.8638 16.0145 14.5137C15.9862 14.4106 15.9997 14.3005 16.0519 14.2072C16.1041 14.1138 16.191 14.0447 16.2937 14.0147C16.5085 13.9557 16.7287 14.0791 16.7931 14.2937C16.9166 14.7337 17.2657 15.0825 17.706 15.2059C17.9208 15.2649 18.0443 15.4903 17.9853 15.7049C17.9316 15.882 17.7705 16 17.5932 16Z" fill="#207DFF"/>
<path d="M9.51045 19.9701H5.60872C2.0484 19.9701 0 18.0195 0 14.6292V6.73395C0 3.34365 2.0484 1.39307 5.60872 1.39307H13.4122C16.9725 1.39307 19.0209 3.34365 19.0209 6.73395V9.98493C19.0209 10.3658 18.6892 10.6816 18.2893 10.6816C17.8894 10.6816 17.5577 10.3658 17.5577 9.98493V6.73395C17.5577 4.07744 16.2019 2.78634 13.4122 2.78634H5.60872C2.81899 2.78634 1.46315 4.07744 1.46315 6.73395V14.6292C1.46315 17.2857 2.81899 18.5768 5.60872 18.5768H9.51045C9.91037 18.5768 10.242 18.8926 10.242 19.2734C10.242 19.6543 9.91037 19.9701 9.51045 19.9701Z" fill="#207DFF"/>
</svg>
