<svg width="20" height="20" viewBox="0 0 20 20" fill="none" xmlns="http://www.w3.org/2000/svg">
<path d="M9.58385 18.9601C8.92552 18.9601 8.30052 18.6184 7.86719 18.0351L7.01719 16.9184C6.84219 16.6851 6.60885 16.5518 6.35885 16.5351C6.11719 16.5184 5.85885 16.6351 5.65052 16.8434C4.93385 17.6101 4.23385 17.9768 3.57552 17.9601C3.12552 17.9434 2.73385 17.7434 2.43385 17.3768C2.39667 17.3281 2.36587 17.2749 2.34219 17.2184C2.01719 16.5184 1.86719 15.5684 1.86719 14.1434V5.87676C1.86719 4.45176 2.01719 3.51009 2.34219 2.80176C2.36719 2.75176 2.39219 2.70176 2.43385 2.66009C2.72552 2.28509 3.11719 2.08509 3.56719 2.06009C4.23385 2.03509 4.94219 2.41842 5.64219 3.16842C5.85052 3.39342 6.10052 3.50176 6.35052 3.48509C6.60052 3.46842 6.83385 3.33509 7.00885 3.10176L7.85885 1.97676C8.29219 1.39342 8.91719 1.05176 9.57552 1.05176C10.2339 1.05176 10.8589 1.39342 11.2922 1.97676L12.1339 3.09342C12.3089 3.33509 12.5505 3.46842 12.8089 3.48509C13.0505 3.50176 13.3089 3.38509 13.5172 3.16842C14.2005 2.43509 14.8755 2.06009 15.5255 2.06009C15.9922 2.06009 16.4255 2.26842 16.7255 2.66009C16.7589 2.70176 16.7922 2.75176 16.8172 2.81009C17.1422 3.51009 17.2922 4.46009 17.2922 5.88509V14.1518C17.2922 15.5768 17.1422 16.5184 16.8172 17.2268C16.7839 17.3018 16.7422 17.3684 16.6839 17.4268C16.4255 17.7601 16.0005 17.9684 15.5255 17.9684C14.8755 17.9684 14.2005 17.5934 13.5172 16.8601C13.3172 16.6434 13.0422 16.5268 12.8089 16.5434C12.5505 16.5601 12.3172 16.6934 12.1339 16.9351L11.2922 18.0518C10.8672 18.6184 10.2422 18.9601 9.58385 18.9601ZM6.31719 15.2768H6.42552C7.04219 15.3101 7.61719 15.6351 8.00885 16.1601L8.85885 17.2851C9.26719 17.8351 9.88385 17.8351 10.2922 17.2934L11.1339 16.1768C11.5339 15.6434 12.1172 15.3268 12.7339 15.2934C13.3505 15.2601 13.9672 15.5184 14.4172 16.0018C15.0339 16.6601 15.4089 16.7101 15.5089 16.7101C15.5755 16.7101 15.6339 16.6934 15.6922 16.6434C15.9255 16.1184 16.0255 15.3268 16.0255 14.1434V5.87676C16.0255 4.71009 15.9172 3.91842 15.6922 3.39342C15.6702 3.3663 15.6421 3.34465 15.6103 3.33019C15.5785 3.31573 15.5438 3.30885 15.5089 3.31009C15.4089 3.31009 15.0339 3.36009 14.4172 4.01842C13.9672 4.50176 13.3505 4.76009 12.7339 4.72676C12.1089 4.69342 11.5255 4.36842 11.1255 3.84342L10.2839 2.72676C9.87552 2.17676 9.25885 2.17676 8.85052 2.72676L8.00052 3.86009C7.60885 4.38509 7.03385 4.70176 6.41719 4.73509C5.80052 4.76842 5.18385 4.51009 4.73385 4.03509C4.22552 3.48509 3.83385 3.30176 3.61719 3.31009C3.56719 3.31009 3.50885 3.32676 3.44219 3.39342C3.21719 3.91842 3.10885 4.71009 3.10885 5.87676V14.1434C3.10885 15.3184 3.21719 16.1101 3.44219 16.6351C3.51719 16.7018 3.56719 16.7101 3.61719 16.7184C3.82552 16.7268 4.21719 16.5434 4.72552 16.0018C5.16719 15.5268 5.74219 15.2768 6.31719 15.2768Z" fill="#207DFF"/>
<path d="M13.3346 9.1665H6.66797C6.3263 9.1665 6.04297 8.88317 6.04297 8.5415C6.04297 8.19984 6.3263 7.9165 6.66797 7.9165H13.3346C13.6763 7.9165 13.9596 8.19984 13.9596 8.5415C13.9596 8.88317 13.6763 9.1665 13.3346 9.1665ZM11.668 12.0832H6.66797C6.3263 12.0832 6.04297 11.7998 6.04297 11.4582C6.04297 11.1165 6.3263 10.8332 6.66797 10.8332H11.668C12.0096 10.8332 12.293 11.1165 12.293 11.4582C12.293 11.7998 12.0096 12.0832 11.668 12.0832Z" fill="#17CF9D"/>
</svg>
