<svg width="20" height="20" viewBox="0 0 20 20" fill="none" xmlns="http://www.w3.org/2000/svg">
<path d="M6.89297 18.9582H3.5263C1.8513 18.9582 1.04297 18.1832 1.04297 16.5832V3.4165C1.04297 1.8165 1.85964 1.0415 3.5263 1.0415H6.89297C8.56797 1.0415 9.3763 1.8165 9.3763 3.4165V16.5832C9.3763 18.1832 8.55964 18.9582 6.89297 18.9582ZM3.5263 2.2915C2.46797 2.2915 2.29297 2.57484 2.29297 3.4165V16.5832C2.29297 17.4248 2.46797 17.7082 3.5263 17.7082H6.89297C7.9513 17.7082 8.1263 17.4248 8.1263 16.5832V3.4165C8.1263 2.57484 7.9513 2.2915 6.89297 2.2915H3.5263ZM16.4763 9.37484H13.1096C11.4346 9.37484 10.6263 8.63317 10.6263 7.09984V3.3165C10.6263 1.78317 11.443 1.0415 13.1096 1.0415H16.4763C18.1513 1.0415 18.9596 1.78317 18.9596 3.3165V7.0915C18.9596 8.63317 18.143 9.37484 16.4763 9.37484ZM13.1096 2.2915C11.993 2.2915 11.8763 2.60817 11.8763 3.3165V7.0915C11.8763 7.80817 11.993 8.1165 13.1096 8.1165H16.4763C17.593 8.1165 17.7096 7.79984 17.7096 7.0915V3.3165C17.7096 2.59984 17.593 2.2915 16.4763 2.2915H13.1096ZM16.4763 18.9582H13.1096C11.4346 18.9582 10.6263 18.1415 10.6263 16.4748V13.1082C10.6263 11.4332 11.443 10.6248 13.1096 10.6248H16.4763C18.1513 10.6248 18.9596 11.4415 18.9596 13.1082V16.4748C18.9596 18.1415 18.143 18.9582 16.4763 18.9582ZM13.1096 11.8748C12.1263 11.8748 11.8763 12.1248 11.8763 13.1082V16.4748C11.8763 17.4582 12.1263 17.7082 13.1096 17.7082H16.4763C17.4596 17.7082 17.7096 17.4582 17.7096 16.4748V13.1082C17.7096 12.1248 17.4596 11.8748 16.4763 11.8748H13.1096Z" fill="#232323"/>
</svg>
