<svg width="20" height="20" viewBox="0 0 20 20" fill="none" xmlns="http://www.w3.org/2000/svg">
<path fill-rule="evenodd" clip-rule="evenodd" d="M12.7773 1.11111V0H13.8885V1.11111C13.8885 1.41793 14.1372 1.66667 14.444 1.66667H17.7773C18.391 1.66667 18.8885 2.16413 18.8885 2.77778V10C18.8885 10.3068 18.6397 10.5556 18.3329 10.5556C18.0261 10.5556 17.7773 10.3068 17.7773 10V2.77778H14.444C13.5235 2.77778 12.7773 2.03158 12.7773 1.11111Z" fill="#207DFF"/>
<path fill-rule="evenodd" clip-rule="evenodd" d="M13.8885 4.44461V6.66683H14.9996V4.44461H13.8885ZM13.3329 3.3335C13.0261 3.3335 12.7773 3.58222 12.7773 3.88905V7.22238C12.7773 7.52922 13.0261 7.77794 13.3329 7.77794H15.5551C15.862 7.77794 16.1107 7.52922 16.1107 7.22238V3.88905C16.1107 3.58222 15.862 3.3335 15.5551 3.3335H13.3329Z" fill="#207DFF"/>
<path fill-rule="evenodd" clip-rule="evenodd" d="M13.8867 3.61095V1.6665H14.9978V3.61095H13.8867Z" fill="#207DFF"/>
<path fill-rule="evenodd" clip-rule="evenodd" d="M17.8137 10.5926H7.83802C7.49535 10.5926 7.16858 10.4554 6.92891 10.2141L7.71719 9.43105C7.74924 9.46333 7.79274 9.4815 7.83802 9.4815H17.8137C19.0207 9.4815 19.9991 10.4681 19.9991 11.6852C19.9991 12.9023 19.0207 13.8889 17.8137 13.8889H6.15035C5.9843 13.8889 5.82508 13.8224 5.70758 13.7042L1.20304 9.16916C0.338571 8.29883 0.338571 6.88633 1.20304 6.016C2.06557 5.14766 3.46258 5.14766 4.32508 6.016L7.71719 9.43105L6.92891 10.2141L3.53674 6.79905C3.10874 6.36811 2.41935 6.36811 1.99135 6.79905C1.55728 7.23605 1.55728 7.94911 1.99135 8.38616L6.35352 12.7778H17.8137C18.3984 12.7778 18.888 12.2973 18.888 11.6852C18.888 11.073 18.3983 10.5926 17.8137 10.5926Z" fill="#17CF9D"/>
<path d="M1.66797 9.44434L2.77908 10.1009V16.6666H1.66797V9.44434Z" fill="#207DFF"/>
<path d="M16.668 13.624H17.7791V16.7772H16.668V13.624Z" fill="#207DFF"/>
<path fill-rule="evenodd" clip-rule="evenodd" d="M20 16.6668H0V15.5557H20V16.6668Z" fill="#207DFF"/>
<path fill-rule="evenodd" clip-rule="evenodd" d="M3.05382 18.8891C3.51404 18.8891 3.88715 18.516 3.88715 18.0558C3.88715 17.5956 3.51404 17.2224 3.05382 17.2224C2.5936 17.2224 2.22049 17.5956 2.22049 18.0558C2.22049 18.516 2.5936 18.8891 3.05382 18.8891ZM3.05382 20.0002C4.12771 20.0002 4.99826 19.1297 4.99826 18.0558C4.99826 16.9819 4.12771 16.1113 3.05382 16.1113C1.97993 16.1113 1.10938 16.9819 1.10938 18.0558C1.10938 19.1297 1.97993 20.0002 3.05382 20.0002Z" fill="#207DFF"/>
<path fill-rule="evenodd" clip-rule="evenodd" d="M16.9444 18.8891C17.4047 18.8891 17.7778 18.516 17.7778 18.0558C17.7778 17.5956 17.4047 17.2224 16.9444 17.2224C16.4842 17.2224 16.1111 17.5956 16.1111 18.0558C16.1111 18.516 16.4842 18.8891 16.9444 18.8891ZM16.9444 20.0002C18.0183 20.0002 18.8889 19.1297 18.8889 18.0558C18.8889 16.9819 18.0183 16.1113 16.9444 16.1113C15.8706 16.1113 15 16.9819 15 18.0558C15 19.1297 15.8706 20.0002 16.9444 20.0002Z" fill="#207DFF"/>
<path fill-rule="evenodd" clip-rule="evenodd" d="M3.75807 5.05734C4.57652 4.23961 5.90296 4.24006 6.7208 5.05834L7.72091 6.05895C8.53885 6.87728 8.53841 8.20361 7.71991 9.02139L6.90324 9.83734L6.11791 9.05134L6.93457 8.23539C7.31891 7.85139 7.31913 7.22867 6.93507 6.84445L5.93496 5.84384C5.55085 5.4595 4.9278 5.45928 4.54341 5.84334L3.72674 6.65928L2.94141 5.87328L3.75807 5.05734Z" fill="#17CF9D"/>
</svg>
