<svg width="20" height="20" viewBox="0 0 20 20" fill="none" xmlns="http://www.w3.org/2000/svg">
<path d="M13.2007 18.9582H6.80069C4.56735 18.9582 3.55069 18.1248 3.10069 17.4332C2.44235 16.4165 2.46735 15.0248 3.17569 13.4082L6.36735 6.15817C5.92306 6.04062 5.51771 5.80776 5.19235 5.48317C4.71735 4.99984 4.43402 4.33317 4.43402 3.6415C4.43402 2.20817 5.60069 1.0415 7.03402 1.0415H12.959C13.6507 1.0415 14.309 1.3165 14.8007 1.80817C15.4507 2.45817 15.709 3.38317 15.4924 4.27484C15.2757 5.1665 14.5424 5.87484 13.6424 6.13317L16.8257 13.4165C17.5257 15.0248 17.5507 16.4165 16.884 17.4332C16.434 18.1248 15.4174 18.9582 13.2007 18.9582ZM7.03402 2.2915C6.29235 2.2915 5.68402 2.89984 5.68402 3.6415C5.68402 3.99984 5.83402 4.34984 6.07569 4.59984C6.32569 4.84984 6.67569 4.9915 7.03402 4.9915H7.28402C7.49235 4.9915 7.69235 5.09984 7.80902 5.27484C7.92569 5.44984 7.94235 5.67484 7.85902 5.8665L4.31735 13.9082C3.79235 15.1082 3.72569 16.1165 4.14235 16.7498C4.65902 17.5415 5.86735 17.7082 6.79235 17.7082H13.1924C14.109 17.7082 15.309 17.5415 15.834 16.7498C16.2507 16.1082 16.1924 15.1082 15.6757 13.9165L12.1674 5.8665C12.1262 5.77119 12.1094 5.66716 12.1184 5.56374C12.1274 5.46033 12.162 5.36077 12.219 5.27402C12.276 5.18727 12.3537 5.11603 12.445 5.06672C12.5364 5.01741 12.6385 4.99156 12.7424 4.9915H12.8757C13.5424 4.9915 14.1424 4.5665 14.284 3.97484C14.4007 3.49984 14.2674 3.03317 13.9257 2.6915C13.8003 2.56487 13.651 2.46432 13.4865 2.39567C13.322 2.32702 13.1456 2.29161 12.9674 2.2915H7.03402Z" fill="#207DFF"/>
<path d="M11.5338 12.5327C10.9838 12.5327 10.3921 12.4577 9.80046 12.2577C7.43379 11.466 5.99213 11.5494 5.96713 11.5494C5.63379 11.5994 5.33379 11.291 5.31713 10.9494C5.30046 10.6077 5.57546 10.316 5.91713 10.2994C6.02546 10.291 7.61713 10.2077 10.1921 11.066C12.3588 11.791 13.4838 10.416 13.5088 10.3994C13.7921 10.2077 14.1838 10.291 14.3755 10.5744C14.5671 10.8577 14.4921 11.2494 14.2005 11.441C14.1255 11.4994 13.5421 12.5327 11.5338 12.5327Z" fill="#17CF9D"/>
</svg>
