<svg width="20" height="20" viewBox="0 0 20 20" fill="none" xmlns="http://www.w3.org/2000/svg">
<path d="M18.3346 18.9585H1.66797C1.3263 18.9585 1.04297 18.6752 1.04297 18.3335C1.04297 17.9918 1.3263 17.7085 1.66797 17.7085H18.3346C18.6763 17.7085 18.9596 17.9918 18.9596 18.3335C18.9596 18.6752 18.6763 18.9585 18.3346 18.9585Z" fill="#207DFF"/>
<path d="M17.5 18.9582H2.5C2.15833 18.9582 1.875 18.6748 1.875 18.3332V4.99984C1.875 2.48317 3.31667 1.0415 5.83333 1.0415H14.1667C16.6833 1.0415 18.125 2.48317 18.125 4.99984V18.3332C18.125 18.6748 17.8417 18.9582 17.5 18.9582ZM3.125 17.7082H16.875V4.99984C16.875 3.14984 16.0167 2.2915 14.1667 2.2915H5.83333C3.98333 2.2915 3.125 3.14984 3.125 4.99984V17.7082Z" fill="#207DFF"/>
<path d="M12.3928 17H7.5992C7.27164 17 7 16.728 7 16.4V11.552C7 10.808 7.60719 10.2 8.3502 10.2H11.6498C12.3928 10.2 13 10.808 13 11.552V16.4C12.9959 16.5592 12.9303 16.7106 12.8171 16.8225C12.7039 16.9344 12.5518 16.998 12.3928 17ZM8.1984 15.8H11.7936V11.552C11.7936 11.472 11.7297 11.4 11.6418 11.4H8.34221C8.26232 11.4 8.19041 11.464 8.19041 11.552V15.8H8.1984ZM9.99601 9.2C9.66844 9.2 9.3968 8.928 9.3968 8.6V4.6C9.3968 4.272 9.66844 4 9.99601 4C10.3236 4 10.5952 4.272 10.5952 4.6V8.6C10.5952 8.928 10.3236 9.2 9.99601 9.2Z" fill="#17CF9D"/>
<path d="M12.0846 7.7085H7.91797C7.5763 7.7085 7.29297 7.42516 7.29297 7.0835C7.29297 6.74183 7.5763 6.4585 7.91797 6.4585H12.0846C12.4263 6.4585 12.7096 6.74183 12.7096 7.0835C12.7096 7.42516 12.4263 7.7085 12.0846 7.7085Z" fill="#17CF9D"/>
</svg>
