<svg width="20" height="20" viewBox="0 0 20 20" fill="none" xmlns="http://www.w3.org/2000/svg">
<path d="M6.66536 4.7915C6.3237 4.7915 6.04036 4.50817 6.04036 4.1665V1.6665C6.04036 1.32484 6.3237 1.0415 6.66536 1.0415C7.00703 1.0415 7.29036 1.32484 7.29036 1.6665V4.1665C7.29036 4.50817 7.00703 4.7915 6.66536 4.7915ZM13.332 4.7915C12.9904 4.7915 12.707 4.50817 12.707 4.1665V1.6665C12.707 1.32484 12.9904 1.0415 13.332 1.0415C13.6737 1.0415 13.957 1.32484 13.957 1.6665V4.1665C13.957 4.50817 13.6737 4.7915 13.332 4.7915ZM12.4987 9.7915H5.83203C5.49036 9.7915 5.20703 9.50817 5.20703 9.1665C5.20703 8.82484 5.49036 8.5415 5.83203 8.5415H12.4987C12.8404 8.5415 13.1237 8.82484 13.1237 9.1665C13.1237 9.50817 12.8404 9.7915 12.4987 9.7915ZM9.9987 13.1248H5.83203C5.49036 13.1248 5.20703 12.8415 5.20703 12.4998C5.20703 12.1582 5.49036 11.8748 5.83203 11.8748H9.9987C10.3404 11.8748 10.6237 12.1582 10.6237 12.4998C10.6237 12.8415 10.3404 13.1248 9.9987 13.1248Z" fill="#17CF9D"/>
<path d="M12.5 18.9582H7.5C2.81667 18.9582 1.875 16.7498 1.875 13.1832V8.0415C1.875 4.0915 3.20833 2.48317 6.63333 2.2915H13.3333C16.7917 2.48317 18.125 4.0915 18.125 8.0415V13.3332C18.125 13.6748 17.8417 13.9582 17.5 13.9582C17.1583 13.9582 16.875 13.6748 16.875 13.3332V8.0415C16.875 4.40817 15.6667 3.67484 13.3 3.5415H6.66667C4.33333 3.67484 3.125 4.40817 3.125 8.0415V13.1832C3.125 16.3748 3.73333 17.7082 7.5 17.7082H12.5C12.8417 17.7082 13.125 17.9915 13.125 18.3332C13.125 18.6748 12.8417 18.9582 12.5 18.9582Z" fill="#207DFF"/>
<path d="M12.5 18.9585C12.3344 18.9578 12.1759 18.8918 12.0588 18.7747C11.9417 18.6576 11.8757 18.4991 11.875 18.3335V15.8335C11.875 13.8168 12.9833 12.7085 15 12.7085H17.5C17.75 12.7085 17.9833 12.8585 18.075 13.0918C18.175 13.3252 18.1167 13.5918 17.9417 13.7752L12.9417 18.7752C12.8246 18.8924 12.6657 18.9584 12.5 18.9585ZM15 13.9585C13.6833 13.9585 13.125 14.5168 13.125 15.8335V16.8252L15.9917 13.9585H15Z" fill="#207DFF"/>
</svg>
