<svg width="20" height="20" viewBox="0 0 20 20" fill="none" xmlns="http://www.w3.org/2000/svg">
<path d="M4.59505 5.41667C4.13672 5.41667 3.76172 5.04167 3.76172 4.58333C3.76172 4.125 4.12839 3.75 4.59505 3.75H4.60339C5.06172 3.75 5.43672 4.125 5.43672 4.58333C5.43672 5.04167 5.06172 5.41667 4.59505 5.41667ZM15.4284 16.25C14.9701 16.25 14.5951 15.875 14.5951 15.4167C14.5951 14.9583 14.9617 14.5833 15.4284 14.5833H15.4367C15.8951 14.5833 16.2701 14.9583 16.2701 15.4167C16.2701 15.875 15.8951 16.25 15.4284 16.25Z" fill="#17CF9D"/>
<path d="M4.55729 8.12484C3.61866 8.12264 2.7191 7.74879 2.05539 7.08508C1.39167 6.42136 1.01783 5.5218 1.01562 4.58317C1.01783 3.64454 1.39167 2.74498 2.05539 2.08126C2.7191 1.41755 3.61866 1.0437 4.55729 1.0415C5.49592 1.0437 6.39548 1.41755 7.0592 2.08126C7.72291 2.74498 8.09676 3.64454 8.09896 4.58317C8.09896 6.53317 6.51562 8.12484 4.55729 8.12484ZM4.55729 2.2915C3.29062 2.2915 2.26563 3.3165 2.26563 4.58317C2.26563 5.84984 3.29062 6.87484 4.55729 6.87484C5.82396 6.87484 6.84896 5.84984 6.84896 4.58317C6.84896 3.3165 5.82396 2.2915 4.55729 2.2915ZM16.6406 18.9582H14.1406C12.874 18.9582 11.849 17.9332 11.849 16.6665V14.1665C11.849 12.8998 12.874 11.8748 14.1406 11.8748H16.6406C17.9073 11.8748 18.9323 12.8998 18.9323 14.1665V16.6665C18.9323 17.9332 17.9073 18.9582 16.6406 18.9582ZM14.1406 13.1248C13.5656 13.1248 13.099 13.5915 13.099 14.1665V16.6665C13.099 17.2415 13.5656 17.7082 14.1406 17.7082H16.6406C17.2156 17.7082 17.6823 17.2415 17.6823 16.6665V14.1665C17.6823 13.5915 17.2156 13.1248 16.6406 13.1248H14.1406ZM10.0006 16.4582H7.76729C6.80063 16.4582 5.95896 15.8748 5.62563 14.9748C5.28396 14.0748 5.53396 13.0832 6.25896 12.4415L12.9173 6.6165C13.3173 6.2665 13.3256 5.7915 13.209 5.4665C13.084 5.1415 12.7673 4.7915 12.234 4.7915H10.0006C9.65896 4.7915 9.37563 4.50817 9.37563 4.1665C9.37563 3.82484 9.65896 3.5415 10.0006 3.5415H12.234C13.2006 3.5415 14.0423 4.12484 14.3756 5.02484C14.7173 5.92484 14.4673 6.9165 13.7423 7.55817L7.08396 13.3832C6.68396 13.7332 6.67562 14.2082 6.79229 14.5332C6.91729 14.8582 7.23396 15.2082 7.76729 15.2082H10.0006C10.3423 15.2082 10.6256 15.4915 10.6256 15.8332C10.6256 16.1748 10.3423 16.4582 10.0006 16.4582Z" fill="#207DFF"/>
</svg>
