<svg width="23" height="23" viewBox="0 0 23 23" fill="none" xmlns="http://www.w3.org/2000/svg">
<path d="M19.0676 15.5479V7.57152C19.0676 7.3792 18.9837 7.19477 18.8343 7.05878C18.6849 6.92279 18.4823 6.8464 18.2711 6.8464V6.12127C18.2711 5.92896 18.1872 5.74452 18.0378 5.60853C17.8884 5.47255 17.6858 5.39615 17.4745 5.39615C17.4735 5.17199 17.3964 4.9536 17.2539 4.77084C17.1113 4.58808 16.9102 4.44989 16.678 4.37518V1.40797C16.678 1.31181 16.636 1.2196 16.5613 1.1516C16.4867 1.08361 16.3854 1.04541 16.2797 1.04541C16.1741 1.04541 16.0728 1.08361 15.9981 1.1516C15.9234 1.2196 15.8815 1.31181 15.8815 1.40797V4.37518C15.6493 4.44989 15.4482 4.58808 15.3056 4.77084C15.163 4.9536 15.0859 5.17199 15.0849 5.39615C14.8737 5.39615 14.6711 5.47255 14.5217 5.60853C14.3723 5.74452 14.2884 5.92896 14.2884 6.12127V6.8464C14.0771 6.8464 13.8745 6.92279 13.7251 7.05878C13.5758 7.19477 13.4918 7.3792 13.4918 7.57152V15.5479C13.2806 15.5479 13.078 15.6243 12.9286 15.7603C12.7792 15.8962 12.6953 16.0807 12.6953 16.273V16.9981C12.6953 17.1904 12.7792 17.3749 12.9286 17.5109C13.078 17.6468 13.2806 17.7232 13.4918 17.7232H14.6867V19.8986H14.2884C13.9715 19.8986 13.6676 20.0132 13.4435 20.2172C13.2195 20.4212 13.0936 20.6978 13.0936 20.9863C13.0936 21.2748 13.2195 21.5514 13.4435 21.7554C13.6676 21.9594 13.9715 22.074 14.2884 22.074H18.2711C18.588 22.074 18.8919 21.9594 19.1159 21.7554C19.34 21.5514 19.4659 21.2748 19.4659 20.9863C19.4659 20.6978 19.34 20.4212 19.1159 20.2172C18.8919 20.0132 18.588 19.8986 18.2711 19.8986H17.8728V17.7232H19.0676C19.2789 17.7232 19.4815 17.6468 19.6308 17.5109C19.7802 17.3749 19.8641 17.1904 19.8641 16.9981V16.273C19.8641 16.0807 19.7802 15.8962 19.6308 15.7603C19.4815 15.6243 19.2789 15.5479 19.0676 15.5479ZM16.2797 5.03359C16.3854 5.03359 16.4867 5.07179 16.5613 5.13978C16.636 5.20777 16.678 5.29999 16.678 5.39615H15.8815C15.8815 5.29999 15.9234 5.20777 15.9981 5.13978C16.0728 5.07179 16.1741 5.03359 16.2797 5.03359ZM15.0849 6.12127H17.4745V6.8464H15.0849V6.12127ZM14.2884 14.4602H15.4832C15.5888 14.4602 15.6901 14.422 15.7648 14.354C15.8395 14.286 15.8815 14.1938 15.8815 14.0976C15.8815 14.0015 15.8395 13.9093 15.7648 13.8413C15.6901 13.7733 15.5888 13.7351 15.4832 13.7351H14.2884V12.6474H15.4832C15.5888 12.6474 15.6901 12.6092 15.7648 12.5412C15.8395 12.4732 15.8815 12.381 15.8815 12.2848C15.8815 12.1887 15.8395 12.0964 15.7648 12.0284C15.6901 11.9605 15.5888 11.9223 15.4832 11.9223H14.2884V10.8346H15.4832C15.5888 10.8346 15.6901 10.7964 15.7648 10.7284C15.8395 10.6604 15.8815 10.5682 15.8815 10.472C15.8815 10.3759 15.8395 10.2836 15.7648 10.2156C15.6901 10.1476 15.5888 10.1094 15.4832 10.1094H14.2884V9.02176H15.4832C15.5888 9.02176 15.6901 8.98357 15.7648 8.91557C15.8395 8.84758 15.8815 8.75536 15.8815 8.6592C15.8815 8.56305 15.8395 8.47083 15.7648 8.40283C15.6901 8.33484 15.5888 8.29664 15.4832 8.29664H14.2884V7.57152H18.2711V15.5479H14.2884V14.4602ZM18.6693 20.9863C18.6693 21.0825 18.6274 21.1747 18.5527 21.2427C18.478 21.3107 18.3767 21.3489 18.2711 21.3489H14.2884C14.1828 21.3489 14.0815 21.3107 14.0068 21.2427C13.9321 21.1747 13.8901 21.0825 13.8901 20.9863C13.8901 20.8901 13.9321 20.7979 14.0068 20.7299C14.0815 20.6619 14.1828 20.6237 14.2884 20.6237H18.2711C18.3767 20.6237 18.478 20.6619 18.5527 20.7299C18.6274 20.7979 18.6693 20.8901 18.6693 20.9863ZM17.0763 19.8986H15.4832V17.7232H17.0763V19.8986ZM17.4745 16.9981H13.4918V16.273H19.0676V16.9981H17.4745Z" fill="#207DFF"/>
<path d="M9.11075 13.0623V12.6483H9.50901C9.61464 12.6483 9.71594 12.6101 9.79063 12.5421C9.86532 12.4741 9.90728 12.3819 9.90728 12.2857V11.198C9.90728 10.9096 9.7814 10.6329 9.55733 10.4289C9.33326 10.2249 9.02936 10.1104 8.71248 10.1104H4.72979C4.41291 10.1104 4.10901 10.2249 3.88494 10.4289C3.66087 10.6329 3.53499 10.9096 3.53499 11.198V12.2857C3.53499 12.3819 3.57695 12.4741 3.65164 12.5421C3.72633 12.6101 3.82763 12.6483 3.93326 12.6483H4.33152V13.0623C3.99055 13.1425 3.68835 13.3232 3.47218 13.5763C3.25601 13.8294 3.13804 14.1405 3.13672 14.4611V20.9872C3.13672 21.2757 3.2626 21.5523 3.48667 21.7563C3.71074 21.9603 4.01464 22.0749 4.33152 22.0749H9.11075C9.42763 22.0749 9.73153 21.9603 9.9556 21.7563C10.1797 21.5523 10.3056 21.2757 10.3056 20.9872V14.4611C10.3042 14.1405 10.1863 13.8294 9.97009 13.5763C9.75392 13.3232 9.45172 13.1425 9.11075 13.0623ZM4.33152 11.198C4.33152 11.1019 4.37348 11.0097 4.44817 10.9417C4.52286 10.8737 4.62417 10.8355 4.72979 10.8355H8.71248C8.8181 10.8355 8.91941 10.8737 8.9941 10.9417C9.06879 11.0097 9.11075 11.1019 9.11075 11.198V11.9232H4.33152V11.198ZM8.31421 12.6483V13.0108H5.12806V12.6483H8.31421Z" fill="#207DFF"/>
<path d="M7.91594 16.2208H9.50901V15.8583H7.51767C7.41204 15.8583 7.31074 15.8965 7.23605 15.9645C7.16136 16.0325 7.1194 16.1247 7.1194 16.2208V18.3962C7.1194 18.4924 7.16136 18.5846 7.23605 18.6526C7.31074 18.7206 7.41204 18.7588 7.51767 18.7588H9.50901V18.0337H7.91594C7.81031 18.0337 7.70901 17.9955 7.63432 17.9275C7.55963 17.8595 7.51767 17.7673 7.51767 17.6711C7.51767 17.5749 7.55963 17.4827 7.63432 17.4147C7.70901 17.3467 7.81031 17.3085 7.91594 17.3085H9.50901V16.946H7.91594C7.81031 16.946 7.70901 16.9078 7.63432 16.8398C7.55963 16.7718 7.51767 16.6796 7.51767 16.5834C7.51767 16.4873 7.55963 16.395 7.63432 16.327C7.70901 16.259 7.81031 16.2208 7.91594 16.2208Z" fill="#17CF9D"/>
<path d="M4.33152 21.2967H9.11075C9.21637 21.2967 9.31767 21.2585 9.39236 21.1905C9.46705 21.1225 9.50901 21.0303 9.50901 20.9341V19.4839H7.51767C7.20079 19.4839 6.89689 19.3693 6.67282 19.1653C6.44875 18.9613 6.32287 18.6847 6.32287 18.3962V16.2208C6.32287 15.9324 6.44875 15.6557 6.67282 15.4517C6.89689 15.2478 7.20079 15.1332 7.51767 15.1332H9.50901V14.408C9.50901 14.2157 9.42509 14.0313 9.27571 13.8953C9.12633 13.7593 8.92373 13.6829 8.71248 13.6829H4.72979C4.51854 13.6829 4.31594 13.7593 4.16656 13.8953C4.01718 14.0313 3.93326 14.2157 3.93326 14.408V20.9341C3.93326 21.0303 3.97522 21.1225 4.04991 21.1905C4.1246 21.2585 4.2259 21.2967 4.33152 21.2967Z" fill="#17CF9D"/>
</svg>
